<?xml version="1.0" encoding="utf-8"?>
<!-- Generator: Adobe Illustrator 24.0.1, SVG Export Plug-In . SVG Version: 6.00 Build 0)  -->
<svg version="1.1" id="Layer_1" xmlns="http://www.w3.org/2000/svg" xmlns:xlink="http://www.w3.org/1999/xlink" x="0px" y="0px"
	 viewBox="0 0 122.88 122.88" style="enable-background:new 0 0 122.88 122.88;" xml:space="preserve">
<path d="M105.19,68.7c-3.43-2.95-7.06-5.45-10.86-7.26c3.81-1.81,7.43-4.3,10.86-7.25c4.58,1.6,9.03,4.2,13.28,7.25
	C114.22,64.49,109.77,67.1,105.19,68.7 M101.77,101.76c-5.17-0.83-10.15-2.14-14.52-4.26c-0.34-4.5-1.13-8.84-2.55-12.81
	c3.98,1.42,8.31,2.21,12.81,2.55C99.63,91.61,100.93,96.59,101.77,101.76z M105.09,100.79c-0.17-0.86-0.36-1.71-0.55-2.55
	c-0.38-1.67-0.85-3.34-1.36-4.94c-0.48-1.51-1.06-3.02-1.66-4.44c-0.55-1.28-1.06-2.91-1.94-3.88c-0.67-0.74-1.45-0.58-2.48-0.62
	c-1.73-0.06-3.48-0.22-5.16-0.43c-3.25-0.44-6.34-1.18-9.27-2.31c-0.36-0.14-0.68-0.04-0.89,0.17c-0.22,0.2-0.31,0.54-0.17,0.89
	c1.13,2.92,1.87,6.01,2.31,9.27c0.22,1.68,0.37,3.42,0.43,5.16c0.04,1.04-0.12,1.81,0.62,2.48c0.97,0.88,2.6,1.39,3.88,1.94
	c1.42,0.6,2.92,1.18,4.44,1.66c1.6,0.5,3.27,0.97,4.94,1.35c0.84,0.19,1.69,0.38,2.55,0.55c0.86,0.17,1.71,0.32,2.57,0.48
	c0.55,0.1,1.11-0.23,1.51-0.69c0.47-0.4,0.79-0.96,0.69-1.51C105.41,102.5,105.26,101.65,105.09,100.79z M94.44,94.44
	c-0.83-0.2-1.64-0.43-2.43-0.68c-0.15-0.76-0.32-1.51-0.49-2.25c0.74,0.17,1.49,0.34,2.25,0.49C94.01,92.8,94.24,93.61,94.44,94.44z
	 M96.99,93.79c-0.17-0.63-0.36-1.25-0.56-1.86c-0.2-0.63-0.32-1.63-0.84-2.02c-0.58-0.44-1.63-0.39-2.34-0.52
	c-1.02-0.17-2.05-0.38-3.05-0.63c-0.39-0.09-0.79,0.07-1.07,0.37c-0.29,0.28-0.46,0.68-0.37,1.07c0.24,1.01,0.45,2.03,0.63,3.05
	c0.13,0.71,0.09,1.76,0.52,2.34c0.39,0.52,1.39,0.63,2.02,0.84c0.61,0.2,1.23,0.39,1.86,0.56c0.62,0.17,1.25,0.32,1.88,0.47
	c0.51,0.12,0.98-0.12,1.3-0.5c0.37-0.33,0.62-0.79,0.5-1.3C97.31,95.04,97.16,94.41,96.99,93.79z M66.99,74.87
	c-1.74,0.72-3.59,1.09-5.55,1.1c-1.96-0.01-3.81-0.38-5.55-1.1c-1.74-0.72-3.36-1.8-4.72-3.16c-1.36-1.36-2.44-2.98-3.16-4.72
	c-0.72-1.74-1.09-3.59-1.1-5.55c0.01-1.96,0.38-3.81,1.1-5.55c0.72-1.74,1.8-3.36,3.16-4.72c1.36-1.36,2.98-2.44,4.72-3.16
	c1.74-0.72,3.59-1.09,5.55-1.1c1.96,0.01,3.81,0.38,5.55,1.1c1.74,0.72,3.36,1.8,4.72,3.16c1.36,1.36,2.44,2.98,3.16,4.72
	c0.72,1.74,1.09,3.59,1.1,5.55c-0.01,1.96-0.38,3.81-1.1,5.55c-0.72,1.74-1.8,3.36-3.16,4.72C70.35,73.07,68.73,74.15,66.99,74.87z
	 M76.86,67.82c0.83-2.01,1.26-4.14,1.26-6.38c-0.01-2.24-0.44-4.37-1.26-6.38c-0.83-2-2.07-3.86-3.62-5.42
	c-1.56-1.56-3.42-2.8-5.42-3.62c-2.01-0.83-4.14-1.26-6.38-1.26c-2.24,0.01-4.37,0.44-6.38,1.26c-2,0.83-3.86,2.07-5.42,3.62
	c-1.56,1.56-2.8,3.42-3.62,5.42c-0.83,2.01-1.25,4.14-1.26,6.38c0.01,2.24,0.43,4.37,1.26,6.38c0.83,2,2.07,3.86,3.62,5.42
	c1.56,1.56,3.42,2.8,5.42,3.62c2.01,0.83,4.14,1.26,6.38,1.26c2.24-0.01,4.37-0.43,6.38-1.26c2-0.83,3.86-2.07,5.42-3.62
	C74.79,71.67,76.03,69.82,76.86,67.82z M75.52,82.3c0.22,0.83,0.42,1.67,0.6,2.53c0.09,0.43,0.17,0.86,0.25,1.31
	c0.07,0.43,0.14,0.86,0.2,1.3c0.5,3.53,0.54,7.15,0.14,10.88c-2.92-2.33-5.47-4.96-7.6-7.78c-2.14-2.85-3.84-5.85-5.14-9.03
	l0.55-0.06l0.54-0.1c0.18-0.04,0.37-0.06,0.54-0.1l0.54-0.13c0.81,1.51,1.71,2.91,2.73,4.33c0.5,0.69,1.03,1.37,1.59,2.04
	c0.28,0.34,0.57,0.67,0.86,1c0.29,0.32,0.58,0.64,0.89,0.96c0.26,0.27,0.62,0.32,0.92,0.2c0.3-0.11,0.51-0.42,0.5-0.79
	c-0.08-3.49-0.65-6.94-1.6-10.17c0.62-0.4,1.24-0.81,1.82-1.27C74.52,79.01,75.05,80.61,75.52,82.3z M71.79,86.43
	c-0.83-0.9-1.6-1.8-2.32-2.75c-0.73-0.96-1.41-1.92-2.04-2.91l0.88-0.3c0.29-0.11,0.58-0.23,0.87-0.34c0.57-0.24,1.14-0.5,1.69-0.79
	C71.39,81.65,71.7,84.02,71.79,86.43z M61.44,79.52c-2.42-0.01-4.74-0.47-6.91-1.37c-2.17-0.89-4.19-2.24-5.88-3.93
	c-1.68-1.69-3.03-3.7-3.93-5.88c-0.9-2.17-1.36-4.5-1.37-6.91c0.01-2.42,0.47-4.74,1.37-6.91c0.89-2.17,2.24-4.19,3.93-5.88
	c1.69-1.68,3.7-3.03,5.88-3.93c2.17-0.9,4.5-1.36,6.91-1.37c2.42,0.01,4.74,0.47,6.91,1.37c2.17,0.89,4.19,2.24,5.88,3.93
	c1.68,1.69,3.03,3.7,3.93,5.88c0.9,2.17,1.36,4.5,1.37,6.91c-0.01,2.42-0.47,4.74-1.37,6.91c-0.89,2.17-2.24,4.19-3.93,5.88
	c-1.69,1.68-3.7,3.03-5.88,3.93C66.18,79.06,63.86,79.52,61.44,79.52z M51.09,86.43c0.09-2.42,0.4-4.78,0.92-7.09
	c0.55,0.29,1.12,0.55,1.69,0.79c0.29,0.11,0.58,0.24,0.87,0.34l0.88,0.3c-0.63,0.99-1.31,1.95-2.04,2.91
	C52.69,84.64,51.92,85.54,51.09,86.43z M53.76,90.54c-2.13,2.82-4.68,5.45-7.6,7.78c-0.4-3.73-0.37-7.35,0.14-10.88
	c0.06-0.44,0.13-0.87,0.2-1.3c0.07-0.43,0.16-0.87,0.25-1.31c0.18-0.86,0.38-1.7,0.6-2.53c0.47-1.7,1.01-3.29,1.68-4.88
	c0.58,0.47,1.2,0.87,1.82,1.27c-0.95,3.22-1.52,6.67-1.6,10.17c-0.01,0.37,0.2,0.68,0.5,0.79c0.3,0.12,0.66,0.07,0.92-0.2
	c0.3-0.32,0.6-0.63,0.89-0.96c0.29-0.33,0.58-0.67,0.86-1c0.56-0.67,1.09-1.35,1.59-2.04c1.02-1.42,1.91-2.82,2.73-4.33l0.53,0.13
	c0.18,0.04,0.36,0.06,0.54,0.1l0.54,0.1l0.55,0.06C57.61,84.69,55.9,87.69,53.76,90.54z M40.58,75.52c-0.83,0.22-1.67,0.42-2.54,0.6
	c-0.43,0.09-0.86,0.17-1.3,0.25c-0.43,0.07-0.86,0.14-1.3,0.2c-3.53,0.5-7.15,0.54-10.88,0.14c2.33-2.92,4.96-5.47,7.78-7.6
	c2.85-2.14,5.85-3.85,9.03-5.14l0.06,0.55l0.1,0.54c0.04,0.18,0.06,0.37,0.1,0.54l0.12,0.54c-1.51,0.81-2.91,1.71-4.33,2.73
	c-0.69,0.5-1.37,1.03-2.04,1.59c-0.34,0.28-0.67,0.57-1,0.86c-0.32,0.29-0.64,0.59-0.96,0.89c-0.27,0.26-0.32,0.62-0.2,0.92
	c0.11,0.3,0.42,0.51,0.79,0.5c3.49-0.08,6.94-0.65,10.17-1.6c0.4,0.62,0.81,1.24,1.27,1.82C43.87,74.52,42.28,75.05,40.58,75.52z
	 M43.53,70.87c-2.3,0.52-4.67,0.83-7.09,0.92c0.9-0.83,1.8-1.6,2.75-2.32c0.96-0.73,1.92-1.41,2.91-2.04l0.3,0.88
	c0.1,0.29,0.23,0.58,0.34,0.87C42.98,69.75,43.24,70.32,43.53,70.87z M42.74,53.7c-0.1,0.29-0.24,0.58-0.34,0.87l-0.3,0.88
	c-0.99-0.63-1.95-1.31-2.91-2.04c-0.94-0.73-1.85-1.5-2.75-2.32c2.42,0.09,4.79,0.4,7.09,0.92C43.24,52.56,42.98,53.13,42.74,53.7z
	 M32.34,53.76c-2.82-2.13-5.45-4.68-7.78-7.6c3.73-0.41,7.35-0.37,10.88,0.14c0.43,0.06,0.87,0.13,1.3,0.2
	c0.44,0.07,0.87,0.16,1.31,0.25c0.86,0.18,1.7,0.38,2.53,0.6c1.7,0.47,3.29,1.01,4.88,1.68c-0.47,0.58-0.87,1.2-1.27,1.82
	c-3.22-0.95-6.67-1.51-10.17-1.6c-0.37-0.01-0.68,0.2-0.8,0.5c-0.12,0.3-0.07,0.66,0.2,0.92c0.32,0.3,0.63,0.6,0.96,0.89
	c0.33,0.29,0.67,0.58,1,0.86c0.67,0.56,1.34,1.09,2.04,1.59c1.42,1.02,2.82,1.91,4.33,2.73l-0.12,0.54
	c-0.04,0.18-0.06,0.36-0.1,0.54l-0.1,0.54l-0.06,0.55C38.19,57.61,35.19,55.9,32.34,53.76z M55.45,42.1l-0.88,0.3
	c-0.29,0.1-0.58,0.23-0.87,0.34c-0.57,0.24-1.14,0.5-1.69,0.79c-0.52-2.3-0.83-4.67-0.92-7.09c0.83,0.9,1.6,1.8,2.32,2.75
	C54.15,40.14,54.83,41.11,55.45,42.1z M47.35,40.58c-0.22-0.83-0.42-1.67-0.6-2.53c-0.09-0.43-0.17-0.86-0.25-1.31
	c-0.07-0.43-0.14-0.86-0.2-1.3c-0.5-3.53-0.54-7.15-0.14-10.88c2.92,2.33,5.47,4.96,7.6,7.78c2.14,2.85,3.85,5.85,5.14,9.03
	l-0.55,0.06l-0.54,0.1c-0.18,0.04-0.37,0.06-0.54,0.1l-0.54,0.12c-0.81-1.51-1.71-2.91-2.73-4.33c-0.5-0.69-1.03-1.37-1.59-2.04
	c-0.28-0.34-0.57-0.67-0.86-1c-0.29-0.32-0.58-0.64-0.89-0.96c-0.26-0.27-0.62-0.32-0.92-0.2c-0.3,0.11-0.51,0.42-0.5,0.79
	c0.08,3.49,0.65,6.94,1.6,10.17c-0.62,0.4-1.24,0.81-1.82,1.27C48.36,43.87,47.82,42.27,47.35,40.58z M71.79,36.45
	c-0.09,2.42-0.4,4.78-0.92,7.09c-0.55-0.29-1.12-0.55-1.69-0.79c-0.29-0.1-0.58-0.24-0.87-0.34l-0.88-0.3
	c0.63-0.99,1.31-1.95,2.04-2.91C70.19,38.24,70.96,37.34,71.79,36.45z M69.12,32.34c2.13-2.82,4.68-5.45,7.6-7.78
	c0.4,3.73,0.37,7.35-0.14,10.88c-0.06,0.43-0.13,0.87-0.2,1.3c-0.07,0.44-0.16,0.87-0.25,1.31c-0.18,0.86-0.38,1.7-0.6,2.53
	c-0.47,1.7-1.01,3.29-1.68,4.88c-0.58-0.47-1.2-0.87-1.82-1.27c0.95-3.22,1.52-6.67,1.6-10.17c0.01-0.37-0.21-0.68-0.5-0.79
	c-0.3-0.12-0.66-0.07-0.92,0.2c-0.3,0.32-0.6,0.63-0.89,0.96c-0.29,0.33-0.58,0.67-0.86,1c-0.56,0.67-1.09,1.34-1.59,2.04
	c-1.02,1.42-1.91,2.82-2.73,4.33l-0.53-0.12c-0.18-0.04-0.36-0.06-0.54-0.1l-0.54-0.1l-0.55-0.06
	C65.27,38.19,66.98,35.19,69.12,32.34z M82.3,47.35c0.83-0.22,1.67-0.42,2.53-0.6c0.43-0.09,0.86-0.17,1.31-0.25
	c0.43-0.07,0.86-0.14,1.3-0.2c3.53-0.5,7.15-0.54,10.88-0.14c-2.33,2.92-4.96,5.47-7.78,7.6c-2.85,2.14-5.85,3.84-9.03,5.14
	l-0.06-0.55l-0.1-0.54c-0.04-0.18-0.06-0.37-0.1-0.54l-0.12-0.53c1.51-0.81,2.91-1.71,4.33-2.73c0.69-0.5,1.37-1.03,2.04-1.59
	c0.34-0.28,0.67-0.57,1-0.86c0.32-0.29,0.64-0.58,0.96-0.89c0.27-0.26,0.32-0.62,0.2-0.92c-0.11-0.3-0.42-0.51-0.79-0.5
	c-3.49,0.08-6.94,0.65-10.17,1.6c-0.4-0.62-0.81-1.24-1.27-1.82C79.01,48.36,80.6,47.83,82.3,47.35z M79.35,52.01
	c2.3-0.52,4.67-0.83,7.09-0.92c-0.9,0.83-1.8,1.6-2.75,2.32c-0.96,0.73-1.92,1.41-2.91,2.04l-0.3-0.88
	c-0.1-0.29-0.23-0.58-0.34-0.87C79.9,53.13,79.64,52.56,79.35,52.01z M80.14,69.18c0.11-0.29,0.24-0.58,0.34-0.87l0.3-0.88
	c0.99,0.63,1.95,1.31,2.91,2.04c0.94,0.73,1.85,1.5,2.75,2.32c-2.42-0.09-4.79-0.4-7.09-0.92C79.64,70.32,79.9,69.75,80.14,69.18z
	 M90.54,69.12c2.82,2.13,5.45,4.68,7.78,7.6c-3.73,0.4-7.35,0.37-10.88-0.14c-0.43-0.06-0.87-0.13-1.3-0.2
	c-0.44-0.07-0.87-0.16-1.31-0.25c-0.86-0.18-1.7-0.38-2.54-0.6c-1.69-0.47-3.29-1.01-4.88-1.68c0.47-0.58,0.87-1.2,1.27-1.82
	c3.22,0.95,6.67,1.52,10.17,1.6c0.37,0.01,0.68-0.2,0.79-0.5c0.12-0.3,0.07-0.66-0.2-0.92c-0.32-0.3-0.63-0.6-0.96-0.89
	c-0.33-0.29-0.67-0.58-1-0.86c-0.67-0.56-1.34-1.09-2.04-1.59c-1.42-1.02-2.82-1.91-4.33-2.73l0.12-0.53
	c0.04-0.18,0.06-0.36,0.1-0.54l0.1-0.54l0.06-0.55C84.69,65.27,87.69,66.98,90.54,69.12z M75.75,75.75l0.23-0.25
	c7.8,4.29,17.39,6.09,27.39,4.59c0.41-0.06,0.79-0.43,0.96-0.89c0.18-0.45,0.2-0.97-0.05-1.31c-3.01-4.07-6.52-7.49-10.36-10.19
	c-3.83-2.7-7.98-4.68-12.25-5.93l0.01-0.34l-0.01-0.34c4.28-1.26,8.43-3.24,12.25-5.93c3.83-2.7,7.35-6.12,10.36-10.19
	c0.25-0.34,0.23-0.86,0.05-1.31c-0.17-0.45-0.55-0.83-0.96-0.89c-10-1.5-19.59,0.3-27.39,4.59l-0.23-0.25l-0.25-0.23
	c4.29-7.8,6.09-17.39,4.59-27.39c-0.06-0.41-0.43-0.79-0.89-0.96c-0.45-0.18-0.97-0.2-1.31,0.05c-4.07,3.01-7.49,6.52-10.19,10.36
	c-2.7,3.83-4.68,7.98-5.93,12.26l-0.34-0.01l-0.34,0.01c-1.26-4.28-3.23-8.43-5.93-12.26c-2.7-3.83-6.12-7.35-10.19-10.36
	c-0.34-0.25-0.86-0.23-1.31-0.05c-0.45,0.17-0.83,0.55-0.89,0.96c-1.5,10,0.3,19.59,4.59,27.39l-0.25,0.23l-0.23,0.25
	c-7.8-4.29-17.39-6.09-27.39-4.59c-0.41,0.06-0.79,0.43-0.96,0.89c-0.18,0.45-0.2,0.97,0.05,1.31c3.01,4.07,6.52,7.49,10.35,10.19
	c3.83,2.7,7.98,4.68,12.26,5.93l-0.01,0.34l0.01,0.34c-4.28,1.26-8.43,3.24-12.26,5.93c-3.83,2.7-7.35,6.12-10.35,10.19
	c-0.25,0.34-0.23,0.86-0.05,1.31c0.17,0.45,0.55,0.83,0.96,0.89c10,1.5,19.59-0.3,27.39-4.59l0.23,0.25l0.25,0.23
	c-4.29,7.8-6.09,17.39-4.59,27.39c0.06,0.41,0.43,0.79,0.89,0.96c0.45,0.18,0.97,0.2,1.31-0.05c4.07-3.01,7.49-6.52,10.19-10.36
	c2.7-3.83,4.68-7.98,5.93-12.25l0.34,0.01l0.34-0.01c1.25,4.28,3.23,8.43,5.93,12.25c2.7,3.83,6.12,7.35,10.19,10.36
	c0.34,0.25,0.86,0.23,1.31,0.05c0.45-0.17,0.83-0.55,0.89-0.96c1.5-10-0.3-19.59-4.59-27.39L75.75,75.75z M61.44,118.47
	L61.44,118.47c-3.06-4.25-5.66-8.69-7.26-13.27c2.95-3.43,5.45-7.06,7.26-10.86c1.81,3.81,4.3,7.44,7.25,10.86
	C67.09,109.78,64.5,114.22,61.44,118.47z M68.72,100.92c-0.56-0.67-1.09-1.32-1.62-2c-1.99-2.62-3.65-5.32-4.91-8.19
	c-0.16-0.35-0.45-0.52-0.75-0.5c-0.3-0.01-0.6,0.15-0.75,0.5c-1.27,2.87-2.92,5.57-4.91,8.19c-0.52,0.68-1.06,1.34-1.61,2
	c-0.56,0.66-1.14,1.33-1.73,1.96c-0.7,0.76-1.37,1.19-1.32,2.19c0.07,1.31,0.86,2.84,1.38,4.11c0.58,1.45,1.24,2.91,1.97,4.32
	c0.38,0.75,0.79,1.5,1.22,2.25c0.42,0.74,0.86,1.47,1.32,2.2c0.45,0.73,0.92,1.47,1.41,2.2c0.48,0.71,0.98,1.43,1.47,2.15
	c0.32,0.46,0.94,0.62,1.55,0.58h0.01h0.01c0.61,0.04,1.23-0.12,1.55-0.58c0.5-0.71,0.99-1.43,1.47-2.15
	c0.48-0.73,0.95-1.47,1.41-2.2c0.45-0.73,0.9-1.46,1.32-2.2c0.42-0.75,0.83-1.5,1.22-2.25c0.73-1.41,1.4-2.87,1.97-4.32
	c0.52-1.27,1.31-2.8,1.38-4.11c0.06-1-0.62-1.43-1.32-2.19C69.86,102.24,69.28,101.58,68.72,100.92z M62.68,105.91
	c-0.38,0.74-0.79,1.47-1.24,2.2c-0.44-0.73-0.86-1.47-1.24-2.2c0.42-0.65,0.84-1.29,1.24-1.94
	C61.84,104.61,62.25,105.26,62.68,105.91z M60.42,101.1c-0.53,0.87-1.12,1.76-1.71,2.6c-0.41,0.59-1.19,1.31-1.29,2.02
	c-0.09,0.65,0.53,1.43,0.83,2.03c0.58,1.16,1.23,2.26,1.91,3.37c0.27,0.45,0.77,0.6,1.27,0.57c0.5,0.03,0.99-0.12,1.27-0.57
	c0.68-1.11,1.33-2.22,1.91-3.37c0.3-0.6,0.93-1.38,0.83-2.03c-0.1-0.71-0.88-1.43-1.29-2.02c-0.6-0.84-1.17-1.73-1.71-2.6
	c-0.21-0.35-0.61-0.51-1.02-0.5C61.04,100.59,60.63,100.75,60.42,101.1z M35.64,97.51c-4.37,2.12-9.35,3.43-14.52,4.26
	c0.83-5.17,2.14-10.15,4.26-14.52c4.5-0.34,8.84-1.12,12.81-2.55C36.76,88.67,35.97,93,35.64,97.51z M40.2,81.62
	c-2.92,1.13-6.01,1.87-9.27,2.31c-1.68,0.22-3.42,0.37-5.16,0.43c-1.04,0.04-1.81-0.12-2.48,0.62c-0.88,0.97-1.39,2.6-1.94,3.88
	c-0.6,1.42-1.18,2.93-1.66,4.44c-0.5,1.6-0.98,3.27-1.35,4.94c-0.19,0.84-0.38,1.69-0.55,2.55c-0.17,0.86-0.32,1.71-0.48,2.57
	c-0.1,0.55,0.23,1.11,0.69,1.51c0.4,0.47,0.96,0.79,1.51,0.69c0.86-0.16,1.71-0.3,2.57-0.48c0.86-0.17,1.71-0.36,2.55-0.55
	c1.67-0.38,3.34-0.85,4.94-1.36c1.51-0.48,3.02-1.06,4.44-1.66c1.28-0.55,2.91-1.06,3.88-1.94c0.74-0.66,0.58-1.45,0.62-2.48
	c0.06-1.73,0.22-3.48,0.44-5.15c0.44-3.25,1.18-6.34,2.31-9.27c0.14-0.35,0.04-0.68-0.17-0.89C40.89,81.58,40.55,81.48,40.2,81.62z
	 M29.11,92c0.76-0.15,1.51-0.32,2.25-0.49c-0.17,0.74-0.34,1.49-0.49,2.25c-0.79,0.25-1.6,0.47-2.43,0.68
	C28.64,93.61,28.87,92.8,29.11,92z M25.91,96.97L25.91,96.97c0.33,0.38,0.79,0.62,1.31,0.5c0.63-0.15,1.26-0.31,1.88-0.47
	c0.63-0.17,1.25-0.36,1.86-0.56c0.63-0.2,1.63-0.32,2.02-0.84c0.43-0.58,0.39-1.63,0.52-2.34c0.17-1.02,0.39-2.05,0.63-3.05
	c0.09-0.39-0.07-0.8-0.37-1.07c-0.28-0.29-0.68-0.46-1.08-0.37c-1.01,0.24-2.03,0.45-3.05,0.63c-0.71,0.13-1.76,0.09-2.34,0.52
	c-0.52,0.39-0.63,1.39-0.84,2.02c-0.2,0.61-0.39,1.23-0.56,1.86c-0.17,0.62-0.32,1.25-0.47,1.88
	C25.29,96.17,25.53,96.64,25.91,96.97z M4.41,61.44L4.41,61.44c4.25-3.06,8.69-5.66,13.27-7.25c3.43,2.95,7.06,5.45,10.86,7.25
	c-3.81,1.81-7.43,4.3-10.86,7.26C13.1,67.1,8.66,64.49,4.41,61.44z M20.01,70.45c0.63-0.59,1.3-1.17,1.96-1.73
	c0.67-0.56,1.32-1.09,1.99-1.61c2.62-1.99,5.32-3.65,8.19-4.91c0.35-0.15,0.52-0.45,0.5-0.75c0.01-0.3-0.15-0.6-0.5-0.75
	c-2.87-1.27-5.57-2.92-8.19-4.91c-0.68-0.52-1.34-1.06-1.99-1.61c-0.66-0.56-1.33-1.14-1.96-1.73c-0.76-0.7-1.19-1.37-2.19-1.32
	c-1.31,0.07-2.84,0.86-4.11,1.38c-1.45,0.58-2.91,1.24-4.32,1.97c-0.75,0.39-1.5,0.79-2.25,1.22c-0.74,0.42-1.47,0.86-2.2,1.32
	c-0.73,0.45-1.47,0.92-2.2,1.41C2.02,58.9,1.3,59.4,0.59,59.89c-0.46,0.32-0.62,0.94-0.58,1.55v0.01v0.01
	c-0.04,0.61,0.12,1.23,0.58,1.55c0.71,0.5,1.43,0.99,2.15,1.47c0.73,0.49,1.47,0.95,2.2,1.41c0.73,0.45,1.46,0.9,2.2,1.32
	c0.75,0.42,1.5,0.83,2.25,1.22c1.41,0.73,2.87,1.4,4.32,1.97c1.27,0.52,2.8,1.31,4.11,1.38C18.82,71.82,19.25,71.15,20.01,70.45z
	 M16.97,62.68c-0.74-0.39-1.47-0.79-2.2-1.24c0.73-0.44,1.47-0.85,2.2-1.24c0.65,0.42,1.29,0.84,1.94,1.24
	C18.26,61.84,17.62,62.26,16.97,62.68z M21.78,60.42c-0.87-0.53-1.76-1.12-2.6-1.71c-0.59-0.41-1.31-1.19-2.02-1.29
	c-0.65-0.09-1.43,0.53-2.03,0.83c-1.16,0.58-2.26,1.23-3.37,1.91c-0.45,0.27-0.6,0.77-0.57,1.27c-0.03,0.5,0.12,0.99,0.57,1.27
	c1.11,0.68,2.22,1.33,3.37,1.91c0.6,0.3,1.38,0.93,2.03,0.83c0.71-0.1,1.43-0.88,2.02-1.29c0.84-0.6,1.73-1.17,2.6-1.71
	c0.35-0.21,0.51-0.62,0.5-1.02C22.29,61.04,22.13,60.64,21.78,60.42z M21.11,21.11c5.17,0.83,10.15,2.14,14.52,4.26
	c0.34,4.5,1.12,8.84,2.55,12.81c-3.98-1.42-8.31-2.21-12.81-2.55C23.26,31.26,21.94,26.28,21.11,21.11z M17.78,22.08
	c0.17,0.86,0.36,1.71,0.55,2.55c0.38,1.67,0.85,3.34,1.36,4.94c0.48,1.51,1.06,3.02,1.66,4.44c0.55,1.28,1.06,2.91,1.94,3.88
	c0.67,0.74,1.45,0.58,2.48,0.62c1.73,0.06,3.48,0.22,5.16,0.44c3.25,0.44,6.34,1.18,9.27,2.31c0.35,0.14,0.68,0.04,0.89-0.17
	c0.22-0.2,0.31-0.53,0.17-0.89c-1.13-2.92-1.87-6.01-2.31-9.27c-0.22-1.68-0.37-3.42-0.43-5.15c-0.04-1.04,0.12-1.81-0.62-2.49
	c-0.97-0.88-2.6-1.39-3.88-1.94c-1.42-0.6-2.92-1.18-4.44-1.66c-1.6-0.5-3.27-0.98-4.94-1.35c-0.84-0.19-1.69-0.38-2.55-0.55
	c-0.86-0.17-1.71-0.32-2.57-0.48c-0.55-0.1-1.11,0.23-1.51,0.69c-0.47,0.4-0.79,0.96-0.69,1.51C17.46,20.38,17.61,21.23,17.78,22.08
	z M28.44,28.44c0.83,0.2,1.64,0.43,2.43,0.68c0.15,0.76,0.32,1.51,0.49,2.25c-0.74-0.17-1.49-0.34-2.25-0.49
	C28.87,30.08,28.64,29.27,28.44,28.44z M25.89,29.09c0.17,0.63,0.36,1.25,0.56,1.86c0.2,0.63,0.32,1.63,0.84,2.02
	c0.58,0.43,1.63,0.39,2.34,0.52c1.02,0.17,2.05,0.38,3.05,0.63c0.39,0.09,0.79-0.07,1.07-0.37c0.29-0.28,0.46-0.68,0.37-1.07
	c-0.24-1.01-0.45-2.03-0.63-3.05c-0.13-0.71-0.09-1.76-0.52-2.34c-0.39-0.52-1.39-0.63-2.02-0.84c-0.61-0.2-1.23-0.39-1.86-0.56
	c-0.62-0.17-1.25-0.32-1.88-0.47c-0.51-0.12-0.98,0.12-1.3,0.5c-0.37,0.33-0.62,0.79-0.5,1.3C25.56,27.84,25.72,28.47,25.89,29.09z
	 M61.44,4.41L61.44,4.41c3.06,4.25,5.66,8.69,7.25,13.27c-2.95,3.43-5.45,7.06-7.25,10.86c-1.81-3.81-4.3-7.44-7.26-10.86
	C55.78,13.1,58.38,8.66,61.44,4.41z M54.16,21.96c0.56,0.67,1.09,1.32,1.61,1.99c1.99,2.62,3.65,5.32,4.91,8.19
	c0.15,0.35,0.45,0.52,0.75,0.5c0.3,0.01,0.6-0.15,0.75-0.5c1.27-2.87,2.92-5.57,4.91-8.19c0.52-0.68,1.06-1.34,1.62-1.99
	c0.56-0.66,1.14-1.33,1.73-1.96c0.7-0.76,1.37-1.19,1.32-2.19c-0.07-1.31-0.86-2.84-1.38-4.11c-0.58-1.45-1.24-2.91-1.97-4.32
	c-0.38-0.75-0.79-1.5-1.22-2.25c-0.42-0.74-0.86-1.47-1.32-2.2c-0.45-0.73-0.92-1.47-1.41-2.2c-0.48-0.71-0.97-1.43-1.47-2.15
	c-0.32-0.46-0.94-0.62-1.55-0.58h-0.01h-0.01c-0.61-0.04-1.23,0.12-1.55,0.58c-0.5,0.71-0.99,1.43-1.47,2.15
	C57.93,3.47,57.46,4.2,57,4.93c-0.45,0.73-0.9,1.46-1.32,2.2c-0.42,0.75-0.83,1.5-1.22,2.25c-0.73,1.41-1.4,2.87-1.97,4.32
	c-0.52,1.27-1.31,2.8-1.38,4.11c-0.06,1,0.62,1.43,1.32,2.19C53.02,20.64,53.6,21.3,54.16,21.96z M60.2,16.97
	c0.38-0.74,0.79-1.47,1.24-2.2c0.44,0.73,0.85,1.47,1.24,2.2c-0.42,0.65-0.84,1.29-1.24,1.94C61.04,18.26,60.63,17.62,60.2,16.97z
	 M62.45,21.78c0.53-0.88,1.12-1.76,1.71-2.6c0.41-0.59,1.19-1.31,1.29-2.02c0.09-0.65-0.53-1.43-0.83-2.03
	c-0.58-1.16-1.23-2.26-1.91-3.37c-0.27-0.45-0.77-0.6-1.27-0.57c-0.5-0.03-0.99,0.12-1.27,0.57c-0.68,1.11-1.33,2.22-1.91,3.37
	c-0.3,0.6-0.93,1.38-0.83,2.03c0.1,0.71,0.87,1.43,1.29,2.02c0.6,0.85,1.17,1.73,1.71,2.6c0.21,0.35,0.61,0.51,1.02,0.5
	C61.84,22.29,62.24,22.13,62.45,21.78z M87.24,25.37c4.37-2.12,9.35-3.43,14.52-4.26c-0.83,5.17-2.14,10.15-4.26,14.52
	c-4.5,0.34-8.84,1.13-12.81,2.55C86.11,34.21,86.91,29.87,87.24,25.37z M82.68,41.26c2.92-1.13,6.01-1.87,9.27-2.31
	c1.68-0.22,3.42-0.37,5.16-0.44c1.04-0.04,1.81,0.12,2.48-0.62c0.88-0.97,1.39-2.6,1.94-3.88c0.6-1.42,1.18-2.92,1.66-4.44
	c0.5-1.6,0.98-3.27,1.36-4.94c0.19-0.84,0.38-1.69,0.55-2.55c0.17-0.86,0.32-1.7,0.48-2.57c0.1-0.55-0.23-1.11-0.69-1.51
	c-0.4-0.47-0.96-0.79-1.51-0.69c-0.86,0.15-1.71,0.3-2.57,0.48c-0.86,0.17-1.71,0.36-2.55,0.55c-1.67,0.38-3.34,0.85-4.94,1.35
	c-1.51,0.48-3.02,1.06-4.44,1.66c-1.28,0.55-2.91,1.06-3.88,1.94c-0.74,0.67-0.58,1.45-0.62,2.48c-0.06,1.73-0.22,3.48-0.44,5.16
	c-0.44,3.26-1.18,6.34-2.31,9.27c-0.14,0.35-0.04,0.68,0.17,0.89C82,41.3,82.32,41.4,82.68,41.26z M93.76,30.87
	c-0.76,0.15-1.51,0.32-2.25,0.49c0.17-0.74,0.33-1.49,0.49-2.25c0.79-0.25,1.6-0.47,2.43-0.68C94.24,29.27,94.01,30.08,93.76,30.87z
	 M96.97,25.91L96.97,25.91c-0.33-0.38-0.79-0.62-1.31-0.5c-0.63,0.15-1.26,0.31-1.88,0.47c-0.63,0.17-1.25,0.36-1.86,0.56
	c-0.63,0.2-1.63,0.32-2.02,0.84c-0.44,0.58-0.39,1.63-0.52,2.34c-0.17,1.02-0.38,2.05-0.63,3.05c-0.09,0.39,0.07,0.79,0.37,1.07
	c0.28,0.29,0.68,0.46,1.07,0.37c1.01-0.24,2.03-0.45,3.05-0.63c0.71-0.13,1.76-0.09,2.34-0.52c0.52-0.39,0.63-1.39,0.84-2.02
	c0.2-0.61,0.38-1.23,0.56-1.86c0.17-0.62,0.32-1.25,0.47-1.88C97.59,26.71,97.34,26.24,96.97,25.91z M108.11,61.44
	c-0.73,0.44-1.47,0.85-2.2,1.24c-0.65-0.42-1.29-0.84-1.94-1.24c0.65-0.4,1.29-0.81,1.94-1.24C106.64,60.59,107.38,61,108.11,61.44z
	 M111.12,60.17c-1.11-0.68-2.22-1.33-3.37-1.91c-0.6-0.3-1.38-0.92-2.03-0.83c-0.71,0.1-1.43,0.88-2.02,1.29
	c-0.85,0.6-1.73,1.17-2.6,1.71c-0.35,0.21-0.51,0.62-0.5,1.02c-0.01,0.4,0.15,0.81,0.5,1.02c0.88,0.53,1.76,1.12,2.6,1.71
	c0.59,0.41,1.31,1.19,2.02,1.29c0.65,0.09,1.43-0.53,2.03-0.83c1.15-0.58,2.26-1.23,3.37-1.91c0.45-0.27,0.6-0.77,0.57-1.27
	C111.72,60.94,111.56,60.44,111.12,60.17z M122.87,61.44L122.87,61.44c0.04-0.62-0.12-1.23-0.58-1.55c-0.71-0.5-1.43-0.99-2.15-1.47
	c-0.73-0.48-1.47-0.95-2.2-1.41c-0.73-0.45-1.46-0.9-2.2-1.32c-0.75-0.42-1.5-0.83-2.25-1.22c-1.41-0.73-2.87-1.4-4.32-1.97
	c-1.27-0.52-2.8-1.31-4.11-1.38c-1-0.06-1.43,0.62-2.19,1.32c-0.63,0.59-1.3,1.17-1.96,1.73c-0.67,0.56-1.32,1.09-1.99,1.61
	c-2.62,1.99-5.32,3.65-8.19,4.91c-0.35,0.15-0.52,0.45-0.5,0.75c-0.01,0.3,0.16,0.6,0.5,0.75c2.87,1.27,5.57,2.92,8.19,4.91
	c0.68,0.52,1.34,1.06,1.99,1.61c0.66,0.56,1.33,1.14,1.96,1.73c0.76,0.7,1.19,1.37,2.19,1.32c1.31-0.07,2.84-0.86,4.11-1.38
	c1.45-0.58,2.91-1.24,4.32-1.97c0.75-0.39,1.5-0.8,2.25-1.22c0.74-0.42,1.47-0.86,2.2-1.32c0.73-0.45,1.47-0.93,2.2-1.41
	c0.71-0.48,1.43-0.98,2.15-1.47C122.75,62.67,122.91,62.05,122.87,61.44z"/>
</svg>
