<?xml version="1.0" encoding="utf-8"?>
<!-- Generator: Adobe Illustrator 24.0.1, SVG Export Plug-In . SVG Version: 6.00 Build 0)  -->
<svg version="1.1" id="Layer_1" xmlns="http://www.w3.org/2000/svg" xmlns:xlink="http://www.w3.org/1999/xlink" x="0px" y="0px"
	 viewBox="0 0 122.88 122.88" style="enable-background:new 0 0 122.88 122.88;" xml:space="preserve">
<path d="M112.62,63.78c-1.24,0.84-2.47,1.68-3.71,2.53c-2.51,1.66-4.99,3.22-7.64,4.28c-1.78,0.74-3.7,1.24-5.59,1.42
	c-1.92,0.17-3.84,0.02-5.73-0.49c-2-0.52-4-1.48-5.52-2.53c-0.74-0.52-1.41-1.08-1.88-1.64c-0.45-0.56-0.79-1.14-0.84-1.73
	c0.06-0.44,0.18-0.87,0.22-1.32c1.18,0.71,2.49,1.43,3.98,2.06c1.47,0.63,3.03,1.17,4.67,1.45c2.89,0.52,5.59,0.15,8.19-0.88
	c2.58-1.01,5.04-2.67,7.39-4.29c0.42-0.29,0.64-0.76,0.65-1.22c-0.01-0.47-0.23-0.94-0.65-1.22c-2.35-1.62-4.82-3.27-7.39-4.29
	c-2.61-1.03-5.29-1.4-8.19-0.88c-1.63,0.28-3.2,0.82-4.66,1.45c-1.48,0.64-2.8,1.36-3.98,2.07c-0.04-0.45-0.16-0.88-0.22-1.32
	c0.12-1.1,1.09-2.17,2.46-3.18c1.37-1.01,3.2-1.95,5.09-2.53c2-0.62,4.03-0.84,6.08-0.7c2.01,0.15,4.06,0.68,5.94,1.46
	c2.64,1.06,5.13,2.61,7.64,4.28c1.24,0.84,2.48,1.69,3.71,2.53c1.23,0.83,2.49,1.63,3.8,2.34
	C115.12,62.14,113.85,62.95,112.62,63.78 M104.3,83.44c-0.07,1.02-0.28,2.04-0.55,3.08c-1.07,4.16-3.73,8.16-6.41,10.82
	c-2.68,2.68-6.67,5.32-10.82,6.41c-1.04,0.27-2.06,0.48-3.08,0.55c-0.51,0.04-1,0.07-1.49,0.06c-0.49-0.01-0.98-0.05-1.45-0.11
	c-0.93-0.1-1.83-0.35-2.65-0.68c-0.41-0.17-0.8-0.35-1.17-0.57c-0.37-0.22-0.73-0.47-1.06-0.74c0.46-1.28,0.76-2.63,0.93-3.95
	c2.74,0.66,5.76,0.53,8.67-0.38c2.9-0.9,5.67-2.58,7.9-4.82c2.23-2.23,3.91-5,4.82-7.9c0.91-2.9,1.04-5.93,0.38-8.67
	c1.31-0.17,2.67-0.47,3.95-0.93c0.27,0.33,0.52,0.68,0.74,1.06c0.21,0.37,0.4,0.76,0.57,1.17c0.33,0.82,0.57,1.71,0.68,2.65
	c0.06,0.47,0.09,0.95,0.11,1.45C104.37,82.44,104.34,82.94,104.3,83.44z M71.49,83.66c-0.44-0.53-0.89-1.02-1.34-1.5
	c-0.45-0.49-0.91-0.95-1.37-1.39c1.81-0.68,3.53-1.65,5.09-2.81C78.4,83.14,82.56,88.73,84,95.58c-2.44,0.69-4.98,0.74-7.33,0.15
	c-0.1-3.28-1.22-6.19-2.71-8.65C73.22,85.86,72.37,84.71,71.49,83.66z M72.05,95.34c-0.15,2.01-0.68,4.06-1.46,5.94
	c-1.06,2.64-2.61,5.13-4.28,7.64c-0.84,1.24-1.69,2.48-2.53,3.71c-0.83,1.23-1.63,2.49-2.34,3.8c-0.71-1.31-1.51-2.57-2.34-3.8
	c-0.84-1.24-1.68-2.47-2.53-3.71c-1.66-2.51-3.22-4.99-4.28-7.64c-0.74-1.78-1.24-3.7-1.42-5.59c-0.17-1.92-0.02-3.84,0.49-5.73
	c0.52-2,1.48-4,2.53-5.52c0.52-0.74,1.08-1.41,1.64-1.88c0.56-0.45,1.14-0.79,1.73-0.84c0.44,0.06,0.87,0.18,1.32,0.22
	c-0.71,1.18-1.43,2.49-2.06,3.98c-0.63,1.47-1.17,3.03-1.45,4.67c-0.52,2.89-0.15,5.59,0.88,8.19c1.01,2.58,2.67,5.04,4.29,7.39
	c0.29,0.42,0.76,0.64,1.22,0.65c0.47-0.01,0.94-0.23,1.22-0.65c1.62-2.35,3.27-4.82,4.29-7.39c1.02-2.61,1.4-5.29,0.88-8.19
	c-0.28-1.63-0.82-3.2-1.45-4.66c-0.64-1.48-1.36-2.8-2.07-3.98c0.45-0.04,0.88-0.16,1.32-0.22c1.1,0.12,2.17,1.09,3.18,2.46
	c1.01,1.37,1.95,3.2,2.53,5.09C71.97,91.25,72.2,93.28,72.05,95.34z M48.91,87.09c-1.49,2.47-2.6,5.37-2.71,8.65
	c-2.35,0.59-4.9,0.53-7.33-0.15c1.44-6.85,5.6-12.44,10.12-17.62c1.57,1.17,3.28,2.13,5.09,2.81c-0.45,0.43-0.91,0.89-1.37,1.39
	c-0.45,0.47-0.89,0.97-1.34,1.5C50.5,84.71,49.65,85.86,48.91,87.09z M46.19,103.01c-0.37,0.21-0.76,0.4-1.17,0.57
	c-0.82,0.33-1.71,0.57-2.65,0.68c-0.47,0.06-0.95,0.09-1.45,0.11c-0.49,0.01-0.99-0.02-1.49-0.06c-1.02-0.07-2.04-0.28-3.08-0.55
	c-4.16-1.07-8.16-3.73-10.82-6.41c-2.68-2.68-5.32-6.67-6.41-10.82c-0.27-1.04-0.48-2.06-0.55-3.08c-0.04-0.51-0.07-1-0.06-1.49
	c0.01-0.49,0.05-0.98,0.1-1.45c0.1-0.93,0.35-1.83,0.68-2.65c0.17-0.41,0.35-0.8,0.57-1.17c0.22-0.37,0.47-0.73,0.74-1.06
	c1.28,0.46,2.63,0.76,3.95,0.93c-0.66,2.74-0.53,5.76,0.38,8.67c0.9,2.9,2.59,5.67,4.82,7.9c2.23,2.23,5,3.91,7.9,4.82
	c2.9,0.91,5.93,1.04,8.67,0.38c0.17,1.31,0.47,2.67,0.93,3.95C46.92,102.54,46.56,102.78,46.19,103.01z M13.96,66.31
	c-1.24-0.84-2.48-1.69-3.71-2.53c-1.23-0.83-2.49-1.63-3.8-2.34c1.31-0.71,2.57-1.51,3.8-2.34c1.24-0.84,2.47-1.68,3.71-2.53
	c2.51-1.66,4.99-3.22,7.64-4.28c1.78-0.74,3.7-1.24,5.59-1.42c1.92-0.17,3.84-0.02,5.73,0.49c2,0.52,4,1.48,5.52,2.53
	c0.74,0.52,1.41,1.08,1.88,1.64c0.45,0.56,0.79,1.14,0.84,1.73c-0.06,0.44-0.18,0.87-0.22,1.32c-1.18-0.71-2.49-1.43-3.98-2.06
	c-1.47-0.63-3.03-1.17-4.67-1.45c-2.89-0.52-5.59-0.15-8.19,0.88c-2.58,1.01-5.04,2.67-7.39,4.29c-0.42,0.29-0.64,0.76-0.65,1.22
	c0.01,0.47,0.23,0.94,0.65,1.22c2.35,1.62,4.82,3.27,7.39,4.29c2.61,1.03,5.29,1.4,8.19,0.88c1.63-0.28,3.2-0.82,4.66-1.45
	c1.48-0.64,2.8-1.36,3.98-2.07c0.04,0.45,0.16,0.88,0.22,1.32c-0.12,1.1-1.09,2.17-2.46,3.18c-1.37,1.01-3.2,1.95-5.09,2.53
	c-2,0.62-4.03,0.84-6.08,0.7c-2.01-0.15-4.06-0.68-5.94-1.46C18.96,69.53,16.47,67.98,13.96,66.31z M18.58,39.43
	c0.07-1.02,0.28-2.04,0.55-3.08c1.07-4.16,3.73-8.16,6.41-10.82c2.68-2.68,6.67-5.32,10.82-6.41c1.04-0.27,2.06-0.48,3.08-0.55
	c0.51-0.04,1-0.07,1.49-0.06c0.49,0.01,0.98,0.05,1.45,0.1c0.93,0.1,1.83,0.35,2.65,0.68c0.41,0.17,0.8,0.35,1.17,0.57
	c0.37,0.22,0.73,0.47,1.06,0.74c-0.46,1.28-0.76,2.63-0.93,3.95c-2.74-0.66-5.76-0.53-8.67,0.38c-2.9,0.9-5.67,2.58-7.9,4.82
	c-2.23,2.23-3.91,5-4.82,7.9c-0.91,2.9-1.04,5.93-0.38,8.67c-1.31,0.17-2.67,0.47-3.95,0.93c-0.27-0.33-0.52-0.68-0.74-1.06
	c-0.21-0.37-0.4-0.76-0.57-1.17c-0.33-0.82-0.57-1.71-0.68-2.65c-0.06-0.47-0.09-0.95-0.11-1.45
	C18.51,40.43,18.53,39.94,18.58,39.43z M51.38,39.22c0.44,0.53,0.89,1.02,1.34,1.5c0.45,0.49,0.91,0.95,1.37,1.39
	c-1.81,0.68-3.53,1.65-5.09,2.81c-4.52-5.18-8.68-10.77-10.12-17.62c2.44-0.69,4.98-0.74,7.33-0.15c0.1,3.28,1.22,6.19,2.71,8.65
	C49.65,37.02,50.5,38.17,51.38,39.22z M50.83,27.54c0.15-2.01,0.68-4.06,1.46-5.94c1.06-2.64,2.61-5.13,4.28-7.64
	c0.84-1.24,1.69-2.48,2.53-3.71c0.83-1.23,1.63-2.49,2.34-3.8c0.71,1.31,1.51,2.57,2.34,3.8c0.84,1.24,1.68,2.47,2.53,3.71
	c1.66,2.51,3.22,4.99,4.28,7.64c0.74,1.78,1.24,3.7,1.42,5.59c0.17,1.92,0.02,3.84-0.48,5.73c-0.52,2-1.48,4-2.53,5.52
	c-0.52,0.74-1.08,1.41-1.64,1.88c-0.56,0.45-1.14,0.79-1.73,0.84c-0.44-0.06-0.87-0.18-1.32-0.22c0.71-1.18,1.43-2.49,2.06-3.98
	c0.63-1.47,1.17-3.03,1.45-4.67c0.52-2.89,0.15-5.59-0.88-8.19c-1.01-2.58-2.67-5.04-4.29-7.39c-0.29-0.42-0.76-0.64-1.22-0.65
	c-0.47,0.01-0.94,0.23-1.22,0.65c-1.62,2.35-3.27,4.82-4.29,7.39c-1.02,2.61-1.4,5.29-0.88,8.19c0.28,1.63,0.82,3.2,1.45,4.66
	c0.64,1.48,1.36,2.8,2.07,3.98c-0.45,0.04-0.88,0.16-1.32,0.22c-1.1-0.12-2.17-1.09-3.18-2.46c-1.01-1.37-1.95-3.2-2.53-5.09
	C50.91,31.63,50.68,29.59,50.83,27.54z M73.96,35.79c1.49-2.47,2.6-5.37,2.71-8.65c2.35-0.59,4.9-0.53,7.33,0.15
	c-1.44,6.85-5.6,12.44-10.12,17.62c-1.56-1.17-3.28-2.13-5.09-2.81c0.45-0.43,0.91-0.89,1.37-1.39c0.45-0.47,0.89-0.97,1.34-1.5
	C72.37,38.17,73.22,37.02,73.96,35.79z M80.78,54.09c-0.68-1.81-1.65-3.53-2.81-5.09c5.18-4.52,10.77-8.68,17.62-10.12
	c0.69,2.44,0.74,4.98,0.15,7.33c-3.28,0.1-6.19,1.22-8.65,2.71c-1.23,0.74-2.38,1.59-3.43,2.47c-0.53,0.44-1.02,0.89-1.5,1.34
	C81.68,53.18,81.21,53.64,80.78,54.09z M74.96,45.79c2.52-2.52,5.26-5.01,7.62-7.7c1.17-1.36,2.24-2.77,3.1-4.31
	c0.85-1.53,1.52-3.23,1.77-5.06c1.41,0.76,2.69,1.76,3.85,2.88c1.12,1.16,2.12,2.44,2.88,3.85c-1.83,0.25-3.53,0.92-5.06,1.77
	c-1.54,0.86-2.96,1.93-4.31,3.1c-2.7,2.35-5.19,5.09-7.71,7.62c-0.32-0.39-0.68-0.74-1.02-1.11C75.69,46.47,75.35,46.1,74.96,45.79z
	 M61.44,35.57c1.48,0,3.13-0.89,4.38-2.65c-0.27,1.56-0.78,3.08-1.38,4.42c-0.6,1.32-1.29,2.52-2.01,3.37
	c-0.02,0.02-0.03,0.05-0.05,0.07c-0.31,0-0.63-0.01-0.94-0.02c-0.31,0.01-0.63,0.02-0.94,0.02c-0.02-0.02-0.03-0.05-0.05-0.07
	c-0.72-0.84-1.41-2.05-2.01-3.37c-0.6-1.34-1.11-2.86-1.38-4.42C58.31,34.67,59.96,35.57,61.44,35.57z M61.44,20.59
	c0.65,0.88,1.25,1.76,1.76,2.68c0.52,0.92,0.94,1.9,1.27,2.89c0.27,0.83,0.52,1.73,0.55,2.64c0.04,0.91-0.13,1.78-0.64,2.55
	c-0.37,0.57-0.86,0.98-1.38,1.24c-0.52,0.28-1.07,0.42-1.57,0.4C61,33,60.51,32.9,60.03,32.67c-0.47-0.2-0.93-0.51-1.29-0.94
	c-0.57-0.7-0.83-1.47-0.88-2.31c-0.05-0.84,0.1-1.72,0.34-2.55c0.3-1.13,0.74-2.22,1.29-3.27C60.05,22.56,60.71,21.57,61.44,20.59z
	 M33.77,85.68c1.54-0.86,2.96-1.93,4.31-3.1c2.7-2.35,5.19-5.09,7.71-7.62c0.32,0.39,0.68,0.74,1.02,1.11
	c0.37,0.34,0.72,0.71,1.11,1.02c-2.52,2.52-5.26,5.01-7.62,7.7c-1.17,1.36-2.24,2.77-3.1,4.31c-0.85,1.53-1.52,3.23-1.77,5.06
	c-1.41-0.76-2.69-1.76-3.85-2.88c-1.12-1.16-2.12-2.44-2.88-3.85C30.53,87.19,32.23,86.53,33.77,85.68z M42.1,68.79
	c0.68,1.81,1.65,3.53,2.81,5.09C39.73,78.41,34.14,82.56,27.29,84c-0.69-2.44-0.74-4.98-0.15-7.33c3.28-0.1,6.19-1.22,8.65-2.71
	c1.23-0.74,2.38-1.59,3.43-2.47c0.53-0.44,1.02-0.89,1.5-1.34C41.2,69.7,41.66,69.24,42.1,68.79z M28.71,35.43
	c0.76-1.41,1.76-2.69,2.88-3.85c1.16-1.12,2.44-2.12,3.85-2.88c0.25,1.83,0.92,3.53,1.77,5.06c0.86,1.54,1.93,2.96,3.1,4.31
	c2.35,2.7,5.09,5.19,7.62,7.71c-0.39,0.32-0.74,0.68-1.11,1.02c-0.34,0.37-0.71,0.72-1.02,1.11c-2.52-2.52-5.01-5.26-7.7-7.62
	c-1.36-1.17-2.77-2.24-4.31-3.1C32.24,36.35,30.53,35.69,28.71,35.43z M44.91,49c-1.17,1.57-2.13,3.28-2.81,5.09
	c-0.43-0.45-0.89-0.91-1.39-1.37c-0.47-0.45-0.97-0.89-1.5-1.34c-1.05-0.88-2.2-1.73-3.43-2.47c-2.47-1.49-5.37-2.6-8.65-2.71
	c-0.59-2.35-0.53-4.9,0.15-7.33C34.14,40.31,39.73,44.47,44.91,49z M20.59,61.44c0.88-0.65,1.76-1.25,2.68-1.76
	c0.92-0.52,1.9-0.94,2.89-1.27c0.83-0.27,1.73-0.52,2.64-0.55c0.91-0.04,1.78,0.13,2.55,0.64c0.57,0.37,0.98,0.86,1.24,1.38
	c0.28,0.52,0.42,1.07,0.4,1.57c0.01,0.43-0.09,0.93-0.32,1.4c-0.2,0.47-0.51,0.93-0.94,1.29c-0.7,0.57-1.47,0.83-2.31,0.88
	c-0.84,0.05-1.72-0.1-2.55-0.34c-1.13-0.3-2.22-0.74-3.27-1.29C22.56,62.82,21.57,62.17,20.59,61.44z M40.77,62.38
	c-0.02,0.02-0.05,0.03-0.07,0.05c-0.84,0.72-2.05,1.41-3.37,2.01c-1.34,0.6-2.86,1.11-4.42,1.38c1.75-1.25,2.65-2.89,2.65-4.38
	c0-1.48-0.89-3.13-2.65-4.38c1.56,0.27,3.08,0.78,4.42,1.38c1.32,0.6,2.52,1.29,3.37,2.01c0.02,0.02,0.05,0.03,0.07,0.05
	c0,0.31-0.01,0.63-0.02,0.94C40.76,61.75,40.77,62.06,40.77,62.38z M61.44,87.31c-1.48,0-3.13,0.89-4.38,2.65
	c0.27-1.56,0.78-3.08,1.38-4.42c0.6-1.32,1.29-2.52,2.01-3.37c0.02-0.02,0.03-0.05,0.05-0.07c0.31,0,0.63,0.01,0.94,0.02
	c0.31-0.01,0.63-0.02,0.94-0.02c0.02,0.02,0.03,0.05,0.05,0.07c0.72,0.84,1.41,2.05,2.01,3.37c0.6,1.34,1.11,2.86,1.38,4.42
	C64.57,88.21,62.92,87.31,61.44,87.31z M61.44,102.28c-0.65-0.88-1.25-1.76-1.76-2.68c-0.52-0.92-0.94-1.9-1.27-2.89
	c-0.27-0.83-0.52-1.73-0.55-2.64c-0.04-0.91,0.13-1.78,0.64-2.55c0.37-0.57,0.86-0.98,1.38-1.24c0.52-0.28,1.07-0.42,1.57-0.4
	c0.43-0.01,0.93,0.09,1.4,0.32c0.47,0.2,0.93,0.51,1.29,0.94c0.57,0.7,0.83,1.47,0.88,2.31c0.05,0.84-0.1,1.72-0.34,2.55
	c-0.3,1.13-0.74,2.22-1.29,3.27C62.82,100.31,62.16,101.31,61.44,102.28z M78.17,68.36c-0.89,2.17-2.24,4.19-3.93,5.88
	c-1.69,1.69-3.71,3.04-5.88,3.93c-2.17,0.9-4.5,1.36-6.92,1.37c-2.43-0.01-4.75-0.47-6.92-1.37c-2.17-0.89-4.19-2.24-5.88-3.93
	c-1.69-1.69-3.04-3.71-3.93-5.88c-0.9-2.17-1.36-4.5-1.37-6.92c0.01-2.43,0.47-4.75,1.37-6.92c0.89-2.17,2.24-4.19,3.93-5.88
	c1.69-1.69,3.71-3.04,5.88-3.93c2.17-0.9,4.5-1.36,6.92-1.37c2.43,0.01,4.75,0.47,6.92,1.37c2.17,0.89,4.19,2.24,5.88,3.93
	c1.69,1.69,3.04,3.71,3.93,5.88c0.9,2.17,1.36,4.5,1.37,6.92C79.54,63.86,79.07,66.19,78.17,68.36z M94.17,87.45
	c-0.76,1.41-1.76,2.69-2.88,3.85c-1.16,1.12-2.44,2.12-3.85,2.88c-0.25-1.83-0.92-3.53-1.77-5.06c-0.86-1.54-1.93-2.96-3.1-4.31
	c-2.35-2.7-5.09-5.19-7.62-7.71c0.39-0.32,0.74-0.68,1.11-1.02c0.34-0.37,0.71-0.72,1.02-1.11c2.52,2.52,5.01,5.26,7.7,7.62
	c1.36,1.17,2.77,2.24,4.31,3.1C90.64,86.53,92.34,87.19,94.17,87.45z M77.96,73.88c1.17-1.57,2.13-3.28,2.81-5.09
	c0.44,0.45,0.89,0.91,1.39,1.37c0.47,0.45,0.97,0.89,1.5,1.34c1.05,0.88,2.2,1.73,3.43,2.47c2.47,1.49,5.37,2.6,8.65,2.71
	c0.59,2.35,0.53,4.9-0.15,7.33C88.74,82.56,83.14,78.41,77.96,73.88z M102.29,61.44c-0.88,0.65-1.76,1.25-2.68,1.76
	c-0.92,0.52-1.9,0.94-2.89,1.27c-0.83,0.27-1.73,0.52-2.64,0.55c-0.91,0.04-1.78-0.13-2.55-0.64c-0.57-0.37-0.98-0.86-1.24-1.38
	c-0.28-0.52-0.42-1.07-0.4-1.57c-0.01-0.43,0.09-0.93,0.32-1.4c0.2-0.47,0.51-0.93,0.94-1.29c0.7-0.57,1.47-0.83,2.31-0.88
	c0.84-0.05,1.72,0.1,2.55,0.34c1.13,0.3,2.22,0.74,3.27,1.29C100.31,60.05,101.3,60.71,102.29,61.44z M82.1,60.5
	c0.02-0.02,0.05-0.03,0.07-0.05c0.84-0.72,2.05-1.41,3.37-2.01c1.34-0.6,2.86-1.11,4.42-1.38c-1.75,1.25-2.65,2.89-2.65,4.38
	c0,1.48,0.89,3.13,2.65,4.38c-1.56-0.27-3.08-0.78-4.42-1.38c-1.32-0.6-2.52-1.29-3.37-2.01c-0.02-0.02-0.05-0.03-0.07-0.05
	c0-0.31,0.01-0.63,0.02-0.94C82.11,61.12,82.1,60.81,82.1,60.5z M76.69,19.86c0.37-0.21,0.76-0.4,1.17-0.57
	c0.82-0.33,1.71-0.57,2.65-0.68c0.47-0.06,0.95-0.09,1.45-0.11c0.49-0.01,0.99,0.02,1.49,0.06c1.02,0.07,2.04,0.28,3.08,0.55
	c4.16,1.07,8.16,3.73,10.82,6.41c2.68,2.68,5.32,6.67,6.41,10.82c0.27,1.04,0.48,2.06,0.55,3.08c0.04,0.51,0.07,1,0.06,1.49
	c-0.01,0.49-0.05,0.98-0.11,1.45c-0.1,0.93-0.35,1.83-0.68,2.65c-0.17,0.41-0.35,0.8-0.57,1.17c-0.22,0.37-0.47,0.73-0.74,1.06
	c-1.28-0.46-2.63-0.76-3.95-0.93c0.66-2.74,0.53-5.76-0.38-8.67c-0.9-2.9-2.58-5.67-4.82-7.9c-2.23-2.23-5-3.91-7.9-4.82
	c-2.9-0.91-5.93-1.04-8.67-0.38c-0.17-1.31-0.47-2.67-0.93-3.94C75.96,20.34,76.32,20.09,76.69,19.86z M121.92,59.59
	c-0.7-0.35-1.37-0.73-2.03-1.14c-0.68-0.41-1.34-0.84-1.99-1.3c-0.65-0.45-1.29-0.92-1.93-1.4c-0.65-0.47-1.29-0.96-1.93-1.44
	c-1.25-0.97-2.58-1.92-3.85-2.83c-0.66-0.45-1.32-0.88-1.97-1.3c-0.65-0.42-1.32-0.81-2-1.17c1.82-3.51,2.34-8.11,1.26-12.86
	c-0.54-2.37-1.47-4.75-2.72-7.02c-1.28-2.25-2.89-4.39-4.77-6.28c-1.89-1.87-4.02-3.49-6.28-4.77c-2.27-1.26-4.65-2.18-7.02-2.72
	c-4.75-1.07-9.35-0.56-12.86,1.26c-0.36-0.68-0.75-1.35-1.17-2c-0.42-0.65-0.85-1.32-1.3-1.97c-0.91-1.27-1.86-2.6-2.83-3.85
	c-0.49-0.63-0.96-1.28-1.44-1.93c-0.47-0.64-0.94-1.27-1.4-1.93c-0.45-0.65-0.89-1.32-1.3-1.99c-0.41-0.66-0.79-1.34-1.14-2.03
	C62.97,0.34,62.21,0.01,61.44,0c-0.77,0.01-1.53,0.34-1.85,0.96c-0.35,0.7-0.73,1.37-1.14,2.03c-0.41,0.68-0.84,1.34-1.3,1.99
	c-0.45,0.65-0.92,1.29-1.4,1.93c-0.47,0.65-0.96,1.29-1.44,1.93c-0.97,1.25-1.92,2.58-2.83,3.85c-0.45,0.66-0.88,1.32-1.3,1.97
	c-0.42,0.65-0.81,1.32-1.17,2c-3.51-1.82-8.11-2.34-12.86-1.26c-2.37,0.54-4.75,1.47-7.02,2.72c-2.25,1.28-4.39,2.89-6.28,4.77
	c-1.87,1.89-3.49,4.02-4.77,6.28c-1.26,2.27-2.18,4.65-2.72,7.02c-1.07,4.75-0.56,9.35,1.26,12.86c-0.68,0.36-1.35,0.75-1.99,1.17
	c-0.65,0.42-1.32,0.84-1.97,1.3c-1.27,0.91-2.6,1.86-3.85,2.83c-0.63,0.49-1.28,0.96-1.93,1.44c-0.64,0.47-1.27,0.94-1.93,1.4
	c-0.65,0.45-1.32,0.89-1.99,1.3c-0.66,0.41-1.34,0.79-2.03,1.14C0.34,59.91,0.01,60.67,0,61.44c0.01,0.77,0.34,1.53,0.96,1.85
	c0.7,0.35,1.37,0.73,2.03,1.14c0.68,0.41,1.34,0.84,1.99,1.3c0.65,0.45,1.29,0.92,1.93,1.4c0.65,0.47,1.29,0.96,1.93,1.44
	c1.25,0.97,2.58,1.92,3.85,2.83c0.66,0.45,1.32,0.88,1.97,1.3c0.65,0.42,1.32,0.81,1.99,1.17c-1.82,3.51-2.34,8.11-1.26,12.86
	c0.54,2.37,1.47,4.75,2.72,7.02c1.28,2.25,2.89,4.39,4.77,6.28c1.89,1.87,4.02,3.49,6.28,4.77c2.27,1.26,4.65,2.18,7.02,2.72
	c4.75,1.07,9.35,0.56,12.86-1.26c0.36,0.68,0.75,1.35,1.17,2c0.42,0.65,0.85,1.32,1.3,1.97c0.91,1.27,1.86,2.6,2.83,3.85
	c0.49,0.63,0.96,1.28,1.44,1.93c0.47,0.64,0.94,1.27,1.4,1.93c0.45,0.65,0.89,1.31,1.3,1.99c0.41,0.66,0.79,1.34,1.14,2.03
	c0.31,0.62,1.07,0.94,1.85,0.96c0.77-0.01,1.53-0.34,1.85-0.96c0.35-0.7,0.73-1.37,1.14-2.03c0.41-0.68,0.84-1.34,1.3-1.99
	c0.45-0.65,0.92-1.29,1.4-1.93c0.47-0.65,0.96-1.29,1.44-1.93c0.97-1.25,1.92-2.58,2.83-3.85c0.45-0.66,0.88-1.32,1.3-1.97
	c0.42-0.65,0.81-1.32,1.17-2c3.51,1.82,8.11,2.34,12.86,1.26c2.37-0.54,4.75-1.47,7.02-2.72c2.25-1.28,4.39-2.89,6.28-4.77
	c1.87-1.89,3.49-4.02,4.77-6.28c1.26-2.27,2.18-4.65,2.72-7.02c1.07-4.75,0.56-9.35-1.26-12.86c0.68-0.36,1.35-0.75,2-1.17
	c0.65-0.42,1.32-0.85,1.97-1.3c1.27-0.91,2.6-1.86,3.85-2.83c0.63-0.49,1.28-0.96,1.93-1.44c0.64-0.47,1.27-0.94,1.93-1.4
	c0.65-0.45,1.32-0.89,1.99-1.3c0.66-0.41,1.34-0.79,2.03-1.14c0.62-0.31,0.94-1.07,0.96-1.85C122.87,60.67,122.54,59.9,121.92,59.59
	z"/>
</svg>
