<svg viewBox="0 0 122.7 68.5" xmlns="http://www.w3.org/2000/svg"><g transform="translate(0 -27.2)"><style type="text/css">
	.st0{fill-rule:evenodd;clip-rule:evenodd;fill:#575760}
</style>
<path class="st0" d="m41.5 46.3a7.88 7.88 0 0 0 -.7-3.7 13.49 13.49 0 0 1 1.3-3.9c.1-.2.2-.4.3-.4s.2.1.3.4c.2.5.8 2 1.8 4.4s1.5 4.1 1.7 4.7a5.76 5.76 0 0 1 .2 1c0 .7-.7.3-2-1.2-.2-.2-.2-.1-.2.3 0 .1.3 5 1 14.5s.5 6.9.5 8.1a26.25 26.25 0 0 1 -1.7 9.7 3.26 3.26 0 0 1 -.6 1.2c-.2.4-.3.4-.4.2a6.13 6.13 0 0 1 .1-1.8c.1-1.3.2-2.7.2-4.4 0-1.5.2.3-.6-10.6s-1.2-17.2-1.2-18.5"/><path class="st0" d="m38.3 66.3c0 2.9-.7 5.2-2 6.7a32.48 32.48 0 0 1 -9.2 7c-5.1 2.8-9.9 4.2-14.3 4.2-5.9 0-10-2.9-12.2-8.7a13.09 13.09 0 0 1 -.6-4.3 20.68 20.68 0 0 1 .3-3.5 24.65 24.65 0 0 1 1.2-4.7c.2-.4.3-.6.5-.6s.2.3.1.8c-.2.8-.4 1.6-.6 2.5a11.86 11.86 0 0 0 -.5 3.2 10.33 10.33 0 0 0 2.4 6.6c2.2 2.7 5.3 4 9.5 4a28 28 0 0 0 11.5-2.6 36.21 36.21 0 0 0 8.8-5.1c2.4-1.8 3.5-3.1 3.5-3.9a27.25 27.25 0 0 0 -1.5-3.1 34.62 34.62 0 0 1 -2.6-6.6 3.47 3.47 0 0 0 -.8-1.5 1 1 0 0 1 -.5-.8 30 30 0 0 1 .7-3.5q.15-.6.3-.6a.91.91 0 0 1 .5.3q.9 1 3.9 3.9a1.46 1.46 0 0 1 .5.8q0 .3-.6.3a5.35 5.35 0 0 1 -1.8-.4c.1.2.7 1.6 2 4.2a13 13 0 0 1 1.5 5.4"/><path class="st0" d="m14.6 64q-.15 0 0-.3l1.5-3.1q.15-.3.3-.3a8.86 8.86 0 0 1 2 1.2 7.53 7.53 0 0 1 1.8 1.4 9.61 9.61 0 0 1 -1.6 3.4c-.1.2-.3.3-.4.2-1.1-.8-2.3-1.7-3.6-2.5"/><path class="st0" d="m52.7 30c.9 0 1.3.4 1.3 1.3a3.53 3.53 0 0 1 -.3 1.4c-.2.3-.6.9-1.2 1.7-.9 1-1.5 1.8-1.8 2.2-.5.7-.8 1-.9 1 0-.1.1-.3.2-.7a8.07 8.07 0 0 1 1.7-2.7c.5-.5.9-1 1.4-1.5-.2-.4-.5-.7-.8-.7a2.24 2.24 0 0 0 -1 .3 26 26 0 0 1 -11.6 3 11.18 11.18 0 0 1 -5.5-1.3 4.07 4.07 0 0 1 -.3 2.8 6 6 0 0 0 -.3.7 2.77 2.77 0 0 1 -.1-.8 6.18 6.18 0 0 0 -.5-2.5 26.92 26.92 0 0 0 -1.5-2.3c.2-1 .4-1.5.7-1.5 0 0 .3.2.7.5a9.91 9.91 0 0 0 1.7 1.1 11.44 11.44 0 0 0 5.5 1.3 21 21 0 0 0 6.1-.9 30.16 30.16 0 0 0 4.1-1.7 12.15 12.15 0 0 1 2.4-.7"/><path class="st0" d="m52.9 56.4c2 1.6 3.1 2.6 3 2.9a10 10 0 0 1 -2.1 3.3c-.2.2-.3.2-.4.1-1.1-1.1-2.3-2.2-3.5-3.2-.1-.1 0-.2 0-.3l2-3a26.06 26.06 0 0 0 -3.1-2.7c-.1-.1 0-.2 0-.3l2-3c.1-.2.2-.3.4-.3s.8.5 2 1.6 1.7 1.6 1.7 1.8c0 .5-.7 1.6-2 3.1"/><path class="st0" d="m66 63.2c-1.1-1.7-2.4-2.6-3.8-2.6-1 0-1.5.3-1.5 1s.6 1.2 1.9 1.3a29.19 29.19 0 0 1 3.4.3m2.3 11.8c-.8.8-4.3 2.5-10.6 5.2q-3.6 1.5-5.4 2.4a26.87 26.87 0 0 0 -4.9 2.7 68.9 68.9 0 0 0 -7.1 7.2c-1.8 2.1-3.7 3.2-5.5 3.2a5.21 5.21 0 0 1 -4.1-2.1 8.19 8.19 0 0 1 -1.8-5.4q0-4.35 3.6-11.4c.2-.5.5-.7.6-.7s.1.1.1.2a23.17 23.17 0 0 1 -1.6 4.9 19.22 19.22 0 0 0 -1.6 6.6 4.86 4.86 0 0 0 .9 3 3.09 3.09 0 0 0 2.6 1.2c1.9 0 3.9-1 5.9-2.9 1.3-1.5 2.5-3 3.8-4.5a22.61 22.61 0 0 1 6.5-4.9c1.5-.8 4.2-2.1 8-3.7h.1c2.3-.9 4.6-1.9 6.8-2.9 3.4-1.5 5.1-2.4 5.1-2.8 0-.7-.6-1.4-1.7-2a6.69 6.69 0 0 0 -3.3-.8h-3.1a3.76 3.76 0 0 1 -2.8-1.1 4.1 4.1 0 0 1 -1-2.9 9.06 9.06 0 0 1 1.7-4.9c1.1-1.7 2.3-2.5 3.5-2.5 2 0 3.8 1.1 5.5 3.3a13.7 13.7 0 0 1 2.7 8.5 10.67 10.67 0 0 1 -2.9 7.1z"/><path class="st0" d="m83.3 83.2a24.89 24.89 0 0 1 6.8-5.2 104.56 104.56 0 0 1 11.3-5c-4.2-2.3-6.4-5.6-6.4-9.8a9.13 9.13 0 0 1 2.9-6.9 12.91 12.91 0 0 1 6-2.8c2.1-.3 4.2-.7 6.3-1.1a8 8 0 0 0 4.9-2.7q.9-1.2 1.5-1.2c.3 0 .4.2.4.5a2.54 2.54 0 0 1 -.2.7 11.67 11.67 0 0 1 -2.9 3.9 13.67 13.67 0 0 1 -4.2 2.7 48.71 48.71 0 0 1 -7.5 1.7 8.64 8.64 0 0 0 -5.5 2.6 10 10 0 0 0 3.2 5.5 11 11 0 0 0 8.1 3.6 15.51 15.51 0 0 0 5.7-1.6c2.6-1.2 5.2-2.3 7.9-3.5.7-.3 1.1-.3 1.1 0a1.33 1.33 0 0 1 -.3.7l-1.7 3a1.76 1.76 0 0 1 -.9.8c-8.5 3.8-16.9 7.6-25.5 11.2-.3.2-.9.5-1.3.7a32.56 32.56 0 0 0 -5.1 2.8 66.84 66.84 0 0 0 -7.5 7.6c-1.9 2.2-3.9 3.4-5.9 3.4a5.26 5.26 0 0 1 -4.3-2.2 8.54 8.54 0 0 1 -1.9-5.7c0-3.1 1.3-7.1 3.8-12 .3-.5.5-.8.6-.8s.1.1.1.2a32 32 0 0 1 -1.7 5.2 22.27 22.27 0 0 0 -1.7 7 5.27 5.27 0 0 0 .9 3.2 3.51 3.51 0 0 0 2.7 1.3c2.1 0 4.1-1 6.2-3.1 1.5-1.6 2.8-3.2 4.1-4.7"/><path class="st0" d="m108 36.4a7.88 7.88 0 0 0 -.7-3.7 15.27 15.27 0 0 1 1.4-3.9c.1-.2.2-.4.3-.4s.2.1.3.4c.2.5.8 2 1.7 4.5s1.5 4.1 1.6 4.7a5.76 5.76 0 0 1 .2 1c0 .7-.7.3-2-1.3-.2-.2-.2-.1-.2.3 0 .1.6 11.2 1.2 20.7s.8 14.9.8 16.1a28.41 28.41 0 0 1 -1.8 9.7 3.26 3.26 0 0 1 -.6 1.2c-.2.4-.4.4-.4.2a6.13 6.13 0 0 1 .1-1.8c.2-1.3.2-2.7.3-4.4 0-1.5-.3-7.7-.9-18.7s-1.3-23.3-1.3-24.6"/><path class="st0" d="m70.8 44.7a47.8 47.8 0 0 0 11.6-1.7 81.94 81.94 0 0 0 9.9-3.3c1.9-.8 3.8-1.6 5.6-2.4a13.63 13.63 0 0 1 4.5-1.2c1.8 0 2.7.8 2.7 2.5a8.22 8.22 0 0 1 -1.6 4.2c-.3.4-1.1 1.5-2.4 3.1-.8.8-1.5 1.7-2.3 2.6a16.11 16.11 0 0 0 -2.2 3 10 10 0 0 1 -1.4 2.4.1.1 0 0 1 -.1-.1 14.92 14.92 0 0 1 .6-2.3 18.77 18.77 0 0 1 4-6.4c1.9-2.2 2.9-3.5 2.9-4 0-.3-.3-.5-.9-.5a18.65 18.65 0 0 0 -5.2 1.5c-5.6 2.2-9 3.5-10.2 3.8-7.1 2.3-13 3.5-17.6 3.5-4.9 0-8.5-1.3-10.7-3.9a10.44 10.44 0 0 1 -2.3-6.9 16.68 16.68 0 0 1 2.1-8.2q.75-1.2.9-1.2c.1 0 .1.1.1.2a5.82 5.82 0 0 1 -.3 1.4c-.3.9-.7 1.8-1 2.7a11.42 11.42 0 0 0 -.5 3.7 5.55 5.55 0 0 0 2.5 4.5c2.5 2 6.2 3 11.3 3"/><path class="st0" d="m72.4 54.8c-.1-.1 0-.2 0-.3l2-2.8c.1-.2.2-.2.3-.2s.8.5 1.8 1.5 1.6 1.5 1.6 1.7a9.92 9.92 0 0 1 -2.1 3.1c-.2.2-.3.2-.4.1a23.62 23.62 0 0 0 -3.2-3.1"/><path class="st0" d="m79.1 35.2a7.88 7.88 0 0 0 -.7-3.7 15.27 15.27 0 0 1 1.4-3.9c.1-.2.2-.4.3-.4s.2.1.3.4c.2.5.8 2 1.7 4.5s1.5 4.1 1.6 4.7a5.76 5.76 0 0 1 .2 1c0 .7-.7.3-2-1.3-.2-.2-.2-.1-.2.3 0 .1.6 11.1 1.2 20.7s.8 14.9.8 16.1a28.41 28.41 0 0 1 -1.8 9.7 3.26 3.26 0 0 1 -.6 1.2c-.2.4-.4.4-.4.2a6.13 6.13 0 0 1 .1-1.8c.2-1.3.2-2.7.3-4.4 0-1.5-.3-7.7-.9-18.7s-1.3-23.3-1.3-24.6"/></g></svg>