<svg viewBox="0 0 122.8 86.3" xmlns="http://www.w3.org/2000/svg">
<style type="text/css">
	.st0{fill-rule:evenodd;clip-rule:evenodd;fill:#575760}
</style>
<g transform="translate(-.1 -18.3)"><path class="st0" d="m89.2 104.6a5.81 5.81 0 0 1 -4.6-2.2 8.1 8.1 0 0 1 -2.2-5.7c-.1-3.1 1.2-7.1 3.7-12 .3-.5.5-.8.6-.8s.1.1.1.2a26.92 26.92 0 0 1 -1.6 5.2 21 21 0 0 0 -1.6 7 4.5 4.5 0 0 0 1.1 3.1 3.77 3.77 0 0 0 2.9 1.3c1.9 0 4.2-1.4 6.8-4.1l6.8-7.7c5.7-6.3 10.9-9.5 15.4-9.5a7.82 7.82 0 0 1 4.8 1.4 3.42 3.42 0 0 1 1.5 2.6 9.51 9.51 0 0 1 -.6 3.5c-.2.4-.3.6-.4.6s-.2-.2-.5-.6a5.25 5.25 0 0 0 -4.7-2.6c-3.8 0-8.1 2.3-12.7 6.9-1.4 1.4-3.3 3.6-5.7 6.4a33.15 33.15 0 0 1 -4.6 4.9 6.48 6.48 0 0 1 -4.5 2.1"/>
<path class="st0" d="m117 73.4 1.6-2.4c.1-.2.2-.3.4-.3a7.52 7.52 0 0 1 2 1.3 6.91 6.91 0 0 1 1.7 1.5 12.54 12.54 0 0 1 -2.1 3.3c-.2.2-.3.2-.4.2-1-.8-2.1-1.7-3.3-2.6-.6 1-1.2 1.8-1.7 2.5-.2.2-.3.3-.4.2-1.1-.9-2.3-1.8-3.5-2.7-.1-.1-.1-.1 0-.3l2-3c.1-.2.2-.3.4-.3a7.61 7.61 0 0 1 1.7 1.1c.7.6 1.3 1.2 1.6 1.5"/><path class="st0" d="m69.8 97.9a.19.19 0 0 1 0-.3l1.8-3.1q.15-.3.3-.3a12.64 12.64 0 0 1 2.1 1.4c1.2.9 1.8 1.5 1.8 1.7 0 .6-.7 1.7-1.9 3.4-.2.2-.3.3-.4.1-1.2-1-2.4-2-3.7-2.9"/><path class="st0" d="m72.5 57.8c0 .8.5 1.2 1.4 1.2a15.41 15.41 0 0 0 1.9-.2c.7-.1 1.3-.2 1.5-.2 1.1 0 2 .8 2.9 2.3a12.25 12.25 0 0 1 1.3 2.7c0 .1 0 .2-.1.2s-.5-.2-1.1-.4a3.36 3.36 0 0 0 -1.5-.4 8.21 8.21 0 0 0 -1.8.3c-1 .2-1.8.3-2.5.4h-.6a3.54 3.54 0 0 1 -3-1.3 4.5 4.5 0 0 1 -1.1-3.1 8.92 8.92 0 0 1 1.8-5.3c1.2-1.7 2.4-2.5 3.7-2.5 2.2 0 4.2 1.3 6 4a15.2 15.2 0 0 1 2.6 8.5 10 10 0 0 1 -2.3 6.8 55.9 55.9 0 0 1 -7.5 7c-4.7 3.7-8.6 5.6-11.8 5.6a7.42 7.42 0 0 1 -6.3-3 11.1 11.1 0 0 1 -2-6.7 22.13 22.13 0 0 1 1.9-9.9q.75-1.5.9-1.5v.1a9 9 0 0 1 -.3 1.5 32.51 32.51 0 0 0 -1.3 6.9c0 5 2.5 7.4 7.4 7.4 2.2 0 5-.9 8.2-2.9a44.39 44.39 0 0 0 7.7-5.8c2.2-2 3.5-3.5 3.8-4.3a12 12 0 0 0 -2.8-6.4c-1.5-1.8-3.1-2.7-4.7-2.7a3.69 3.69 0 0 0 -1.7.5 1.93 1.93 0 0 0 -.6 1.2"/><path class="st0" d="m107.7 38.8a8.09 8.09 0 0 0 -.8-2.8c-.6-1.3-1-1.9-1.4-1.9s-1.3.6-2.3 1.7a9.15 9.15 0 0 0 -2.1 3 4.85 4.85 0 0 0 1.1 1.7 5.86 5.86 0 0 0 1.9 1.3 11.39 11.39 0 0 0 3.6-3m4.7 9.5h-.3c-4.1 0-7.1-.6-8.9-1.7a11.8 11.8 0 0 1 -6 2.6h-.2q-3.6-.15-5.1-4.8c-.1-.4-.3-.4-.4 0-1.4 3.7-3.4 5.5-6.1 5.5s-4.2-1.7-4.7-5a.58.58 0 0 0 -.1-.4c-.1 0-.2.2-.3.4a15.59 15.59 0 0 1 -2.8 3.2 8.67 8.67 0 0 1 -5.9 2.6c-2.2 0-3.7-.7-4.5-1.9a7.85 7.85 0 0 1 -.9-3.6c0-.2-.1-.3-.2-.3-.3 0-.5.2-.8.5-1.7 1.9-2.7 3.1-3.2 3.5a10.37 10.37 0 0 1 -6.3 2.7h-.3a5.68 5.68 0 0 1 -4.8-2.4 14.84 14.84 0 0 1 -1.5-5.8c-.4-3.6-.8-6-1-7.2s-.6-1.6-.8-1.6-.4.3-.5 1c-.8 4.3-2.2 6.5-4.3 6.5a4.44 4.44 0 0 1 -1.3-.2 41 41 0 0 1 -.4 7.4 10.38 10.38 0 0 1 -3.5 6.3 58.15 58.15 0 0 1 -11 7.2c-4.1 2.3-6.5 3.4-7.2 3.4-.2 0-2.6.6-7.2 1.7q-7.35 1.8-9.3 2.1c-1.3.2-2 .3-2.3.3s-.2 0-.2-.1a11.61 11.61 0 0 1 2.7-1.4c.6-.2 4.3-1.8 11.2-4.7a115.53 115.53 0 0 0 12-5.7 59.56 59.56 0 0 0 9.8-6.3 14.39 14.39 0 0 0 3.8-4.1 19.85 19.85 0 0 0 -2.4-8.9 3.94 3.94 0 0 1 -.5-1.4 24.21 24.21 0 0 1 1-3.5c.1-.4.2-.6.4-.6s.4.3.6.8a10.16 10.16 0 0 0 1 1.8 3.27 3.27 0 0 0 2.6.9c2.4 0 3.7-2 3.8-5.9.1-1.5.4-2.3 1.1-2.3s1.2.6 1.6 1.8a35.79 35.79 0 0 1 1.7 7.7 24.38 24.38 0 0 0 1.2 5.8 3.94 3.94 0 0 0 3.9 2.3 10.75 10.75 0 0 0 6.1-1.9c.7-.5 2.4-2.1 5-4.6a1.38 1.38 0 0 1 .9-.5c.4 0 .6.3.4.9a5.55 5.55 0 0 0 -.3 1.7 3.32 3.32 0 0 0 1.4 2.7 6.27 6.27 0 0 0 3.5.9 9 9 0 0 0 5.8-2.2 29.83 29.83 0 0 0 2.3-2.4c1.3-1.3 1.9-2 2-2 .3 0 .3.3.2.9a5.37 5.37 0 0 0 -.4 1.5 3.2 3.2 0 0 0 .7 1.9 2.76 2.76 0 0 0 2.5 1.4c2.7 0 5.1-2 7-5.9.2-.4.4-.6.7-.6s.3.2.3.5a2.64 2.64 0 0 1 -.1.7c0 .3-.1.5-.1.7a3.55 3.55 0 0 0 1.1 2.8 4.09 4.09 0 0 0 2.6 1.1 7.31 7.31 0 0 0 3.3-.8 8.4 8.4 0 0 1 -.8-3.9 12.16 12.16 0 0 1 2.6-7c1.6-2.1 3-3.2 4.1-3.2s1.9.8 2.5 2.3a12.27 12.27 0 0 1 .7 3.9c0 3.2-.7 5.7-2.2 7.4a23.44 23.44 0 0 0 4.8.4c3.3 0 5.5-1 6.6-3.1 0-.7-.8-2.3-2.3-4.8a1.42 1.42 0 0 1 -.2-.6 8.39 8.39 0 0 1 .9-3.7c.2-.4.4-.4.7 0q1.35 2.1 1.8 3a10.84 10.84 0 0 1 .8 4.2 13.05 13.05 0 0 1 -1.7 6.9 7.77 7.77 0 0 1 -6.4 3.2z"/><path class="st0" d="m114.6 21.2 1.3-2.6q.15-.3.3-.3a7.2 7.2 0 0 1 2.1 1.3 8.62 8.62 0 0 1 1.9 1.5c0 .6-.6 1.7-1.7 3.5-.1.2-.3.3-.4.2-1.1-.8-2.3-1.7-3.7-2.6-.5 1-.9 1.9-1.4 2.7-.1.2-.3.3-.4.2a38.28 38.28 0 0 0 -3.9-2.7q-.15 0 0-.3l1.6-3.3q.15-.3.3-.3a7.14 7.14 0 0 1 1.8 1.1 11.18 11.18 0 0 1 2.2 1.6"/><path class="st0" d="m46.2 56.5 1.3-2.6q.15-.3.3-.3a7.2 7.2 0 0 1 2.1 1.3 13.57 13.57 0 0 1 1.9 1.5c0 .6-.6 1.7-1.7 3.5-.1.2-.3.3-.4.2-1.1-.8-2.3-1.7-3.7-2.6-.5 1-.9 1.9-1.4 2.7-.1.2-.3.3-.4.2a38.28 38.28 0 0 0 -3.9-2.7c-.1 0-.1-.2 0-.3l1.6-3.3q.15-.3.3-.3a7.14 7.14 0 0 1 1.8 1.1 26.61 26.61 0 0 1 2.2 1.6"/><path class="st0" d="m99.6 22.4q-.15 0 0-.3l1.6-3.3q.15-.3.3-.3a7.2 7.2 0 0 1 2.1 1.3 8.62 8.62 0 0 1 1.9 1.5c0 .6-.6 1.7-1.7 3.5-.1.2-.3.3-.4.2a36.18 36.18 0 0 0 -3.8-2.6"/><path class="st0" d="m114 64.7a64.86 64.86 0 0 0 -8-2.7 49.66 49.66 0 0 0 -11.1-2.1c-2.2-.1-3.3 0-3.3.4 0 .2.3.6 1 1.2 1.3 1.1 2.6 2.2 3.8 3.3a24 24 0 0 1 3.6 3.5 115.87 115.87 0 0 1 14-3.6m-59.4 26.1c-7.1-.9-9.6-2.2-13.5-8.3-.7-1-1.3-1.6-2-1.6-2-.1-4.2 1.6-6.4 4.9a35.68 35.68 0 0 0 -2.1 4.7 36.67 36.67 0 0 1 -2.6 5.5c-1.2 1.7-2.4 2.6-3.8 2.5q-3-.15-5.1-4.8a21.89 21.89 0 0 1 -1.9-8.6 27.79 27.79 0 0 1 1-8.5c.2-.8.4-1.1.6-1.1s.3.5.2 1.4a44.53 44.53 0 0 0 -.4 5.8c0 7.5 1.8 11.4 5.3 11.5 1.4.1 2.7-1 3.9-3.1 1.2-2.6 2.4-5.2 3.6-7.7a22 22 0 0 1 3.9-5.4c1.6-1.5 3-2.2 4.3-2.2a3.48 3.48 0 0 1 2.7 1.9c.7 1.1 1.4 2.3 2.1 3.4 2.3 3.3 6.2 4.4 10.1 4.8a29.81 29.81 0 0 0 4.2.1 80.31 80.31 0 0 0 28.8-5.5 9.7 9.7 0 0 1 -.1-1.7 8 8 0 0 1 5.6-8c.9-.3 2.1-.8 3.6-1.4-.2-.2-1.3-1.2-3.3-2.9a13.79 13.79 0 0 1 -3.3-3.4 5.49 5.49 0 0 1 -.7-2.4 4.75 4.75 0 0 1 1.7-3.6 5.9 5.9 0 0 1 4.3-1.4c3.2.1 8.2 1.2 15.2 3.2.3.1 3.9 1.2 10.9 3.4.4.1.5.4.3.8l-1.1 3.1a2.39 2.39 0 0 1 -.3.7.52.52 0 0 1 -.4.2 142 142 0 0 0 -18.8 5.2c.1.9.2 1.7.2 2.2q0 1.2-.3 1.2c-.3 0-1-.9-2-2.7-1.2.3-3.1 1-6 2.1a20.87 20.87 0 0 0 -3 1.4c-.9.5-1.3.9-1.3 1.1a5 5 0 0 0 .9 2.2 14.19 14.19 0 0 1 4.8-1.1 3.72 3.72 0 0 1 3 1.8 7.61 7.61 0 0 1 1.2 4.4 7 7 0 0 1 -.9 3.7 3.14 3.14 0 0 1 -2.6 1.4 6.65 6.65 0 0 1 -4.3-2.2 9.67 9.67 0 0 1 -2.3-3.5q-8.1 2.85-10.8 3.6c-7.4 1.7-14 3.1-23.1 2.9zm40.8-5.7c.6 0 .9-.1.9-.4 0-.5-.4-.9-1.3-1.3a7 7 0 0 0 -3.1-.2 4.07 4.07 0 0 0 3.5 1.9z"/></g></svg>