<?xml version="1.0" encoding="utf-8"?>
<!-- Generator: Adobe Illustrator 24.0.1, SVG Export Plug-In . SVG Version: 6.00 Build 0)  -->
<svg version="1.1" id="Layer_1" xmlns="http://www.w3.org/2000/svg" xmlns:xlink="http://www.w3.org/1999/xlink" x="0px" y="0px"
	 viewBox="0 0 122.88 122.88" style="enable-background:new 0 0 122.88 122.88;" xml:space="preserve">
<style type="text/css">
	.st0{fill-rule:evenodd;clip-rule:evenodd;fill:#575760}
</style>
<path class="st0" d="M47.7,66.09c-0.28-0.89-0.79-1.67-1.52-2.34c-0.73-0.67-1.46-1-2.19-1c-1.09,0-1.94,0.22-2.55,0.67
	c-0.45,0.32-0.67,0.67-0.67,1.03c1.62,1.21,3.58,2.16,5.88,2.85c0.28,0.08,0.53,0.12,0.73,0.12c0.28,0,0.42-0.16,0.42-0.48
	C47.82,66.74,47.78,66.45,47.7,66.09 M13.53,61.65c0-0.93-0.47-3.09-1.4-6.49c-1.05,0.77-2.45,1.98-4.19,3.64
	c-2.19,2.1-3.8,3.88-4.85,5.34c-0.4,0.61-0.61,1.07-0.61,1.4c0,0.57,0.71,0.85,2.12,0.85c1.58,0,3.34-0.4,5.28-1.21
	C12.11,64.16,13.33,62.98,13.53,61.65z M108.89,65.57c0,0.97,0.58,1.46,1.73,1.46c0.65,0,1.43-0.08,2.35-0.24
	c0.92-0.16,1.54-0.24,1.87-0.24c1.29,0,2.46,0.93,3.49,2.79c1.05,1.92,1.58,3.02,1.58,3.31c0,0.14-0.05,0.21-0.15,0.21
	c-0.16,0-0.59-0.18-1.27-0.53c-0.69-0.35-1.3-0.53-1.85-0.53c-0.45,0-1.18,0.11-2.21,0.33c-1.21,0.24-2.25,0.41-3.09,0.49
	c-0.22,0.02-0.44,0.03-0.67,0.03c-1.56,0-2.78-0.52-3.67-1.55c-0.85-0.97-1.27-2.24-1.27-3.79c0-2.27,0.73-4.42,2.2-6.48
	c1.47-2.05,2.98-3.08,4.53-3.08c2.67,0,5.1,1.63,7.28,4.88c2.1,3.18,3.16,6.61,3.16,10.31c0,3.4-0.94,6.16-2.82,8.28
	c-2.71,3.05-5.74,5.91-9.1,8.56c-5.7,4.51-10.52,6.76-14.44,6.76c-3.3,0-5.87-1.22-7.71-3.67c-1.62-2.16-2.43-4.87-2.43-8.13
	c0-4.87,0.78-8.88,2.34-12.01c0.61-1.21,0.97-1.82,1.09-1.82c0.04,0.02,0.06,0.07,0.06,0.15c0,0.24-0.14,0.87-0.42,1.88
	c-1.03,3.78-1.55,6.6-1.55,8.46c0,6.05,3.01,9.07,9.04,9.07c2.73,0,6.08-1.16,10.04-3.49c3.17-1.88,6.3-4.22,9.37-7.01
	c2.73-2.49,4.28-4.23,4.64-5.22c-0.42-3.03-1.55-5.64-3.37-7.81c-1.82-2.17-3.74-3.26-5.76-3.26c-0.71,0-1.38,0.21-2.02,0.64
	C109.21,64.76,108.89,65.17,108.89,65.57z M98.12,35.68c0-1.78-0.3-3.24-0.91-4.39c0-0.65,0.57-2.19,1.7-4.61
	c0.14-0.3,0.26-0.45,0.36-0.45c0.12,0,0.26,0.16,0.42,0.47c0.32,0.63,1.07,2.37,2.24,5.23c1.23,2.96,1.95,4.79,2.15,5.48
	c0.16,0.52,0.24,0.91,0.24,1.17c0,0.81-0.86,0.32-2.58-1.47c-0.2-0.26-0.3-0.15-0.3,0.33c0,0.17,0.44,5.86,1.33,17.1
	c0.89,11.23,1.34,17.55,1.34,18.96c0,4.32-0.72,8.12-2.15,11.4c-0.3,0.67-0.55,1.15-0.73,1.45c-0.28,0.44-0.46,0.51-0.52,0.19
	c-0.08-0.33-0.05-1.04,0.09-2.11c0.18-1.48,0.27-3.21,0.27-5.17c0-1.78-0.49-9.1-1.49-21.96C98.61,44.42,98.12,37.22,98.12,35.68z
	 M67.3,70.81c-1.17-2.27-3.03-4.51-5.58-6.73c-0.89,0.93-2.04,2.61-3.46,5.04c-1.54,2.63-2.3,4.37-2.3,5.22
	c0,1.17,0.89,1.76,2.67,1.76c0.77,0,1.78-0.26,3.03-0.79c1.82-0.77,3.46-1.86,4.91-3.28C67.14,71.46,67.38,71.06,67.3,70.81z
	 M67.72,47.39c-1.62,1.05-4.13,3.96-7.52,8.74c0.93,0.85,1.68,1.48,2.24,1.88c0.49-0.53,1.82-2.51,4.01-5.95
	c2.1-3.28,2.77-4.91,2-4.91C68.29,47.15,68.05,47.23,67.72,47.39z M35.53,49.55c-0.08-0.06-0.08-0.18,0-0.36l1.94-3.97
	c0.12-0.24,0.25-0.36,0.39-0.36c0.2,0,1.07,0.53,2.61,1.58c1.54,1.05,2.31,1.67,2.31,1.85c0,0.69-0.68,2.12-2.03,4.31
	c-0.16,0.28-0.33,0.35-0.51,0.21C38.71,51.64,37.15,50.56,35.53,49.55z M82.89,43.3c-0.08-0.06-0.08-0.18,0-0.36l1.94-3.97
	c0.12-0.24,0.25-0.36,0.39-0.36c0.2,0,1.07,0.53,2.61,1.58c1.54,1.05,2.31,1.67,2.31,1.85c0,0.69-0.68,2.12-2.03,4.31
	c-0.16,0.28-0.33,0.35-0.51,0.21C86.08,45.39,84.51,44.31,82.89,43.3z M88.35,49.49l1.55-3.19c0.12-0.24,0.25-0.36,0.39-0.36
	c0.2,0,1.07,0.53,2.61,1.58c1.54,1.05,2.31,1.67,2.31,1.85c0,0.69-0.68,2.12-2.03,4.31c-0.16,0.26-0.33,0.33-0.52,0.21
	c-1.34-0.99-2.84-2.03-4.52-3.13c-0.57,1.27-1.12,2.36-1.67,3.25c-0.16,0.28-0.33,0.35-0.51,0.21c-1.52-1.15-3.08-2.23-4.7-3.24
	c-0.08-0.06-0.08-0.18,0-0.36l1.94-3.97c0.12-0.24,0.25-0.36,0.39-0.36c0.18,0,0.92,0.43,2.21,1.3
	C87.1,48.45,87.95,49.09,88.35,49.49z M51.53,66.03c0,2.02-0.31,3.78-0.94,5.28c-0.63,1.5-1.3,2.24-2.03,2.24
	c-3.72,0-7.44-1.44-11.16-4.31c-1.17,2.99-2.79,5.46-4.85,7.4l-0.25,0.24c0.03,4.14,0.09,6.51,0.17,7.09
	c0.41,2.89,1.29,4.81,2.64,5.75c0.64,0.43,1.61,0.68,2.92,0.75h0.02c2.3,0.06,3.81-0.71,4.53-2.31c0.02-0.82-0.78-2.62-2.4-5.4
	c-0.14-0.23-0.2-0.48-0.2-0.75c0.04-1.54,0.45-3.07,1.22-4.59c0.23-0.47,0.5-0.46,0.79,0.02c0.95,1.53,1.59,2.78,1.9,3.75
	c0.47,1.41,0.68,3.14,0.62,5.2c-0.08,3-0.58,5.29-1.52,6.87c-1.27,2.17-2.86,3.29-4.76,3.37v0.02l-0.36-0.01h-0.01
	c-2.01-0.1-3.56-0.6-4.67-1.48c-1.68-1.34-2.78-3.78-3.3-7.31c-0.2-1.36-0.35-4.37-0.44-9.01c-1.05,0.51-2.13,0.81-3.24,0.88v0.01
	l-0.09,0c-0.17,0.01-0.34,0.02-0.51,0.02v-0.03c-3.71-0.23-6.57-2.63-8.57-7.2c-1.09-2.39-1.9-5.44-2.43-9.16
	c-0.53,3.07-1.44,5.06-2.73,5.95c-3.11,2.14-6.05,3.22-8.8,3.22c-2.06,0-3.09-1.13-3.09-3.4c0-3.44,1.17-6.65,3.52-9.65
	c1.46-1.82,4-4.19,7.64-7.1c-0.2-1.01-0.53-2.18-0.97-3.52c0.12-1.17,0.67-2.97,1.64-5.4c0.12-0.28,0.22-0.43,0.3-0.43
	c0.16,0,0.36,0.3,0.61,0.91c0.93,2.43,1.58,4.45,1.94,6.07c1.74-1.13,3.09-2.16,4.07-3.09C19.35,46.3,19.74,46,19.9,46
	c0.08,0.04,0.12,0.1,0.12,0.18c0,0.2-0.14,0.67-0.42,1.4c-0.89,2.06-2.33,3.84-4.31,5.34c0.77,3.6,1.64,7.58,2.61,11.95
	c0.61,2.47,1.74,4.55,3.4,6.25c1.66,1.7,3.3,2.55,4.91,2.55v0c1.05-0.05,2.1-0.23,3.16-0.55c-0.01-1.41-0.02-2.92-0.03-4.52
	c-0.04-11.57-0.15-18.67-0.35-21.29c-0.31-4.2-1.01-8.21-2.08-12.02c0.03-1.01,0.47-2.5,1.33-4.47c0.21-0.49,0.38-0.73,0.51-0.73
	c0.12,0,0.28,0.21,0.47,0.63c1.22,2.58,2.08,6.94,2.57,13.08c0.3,3.81,0.46,11.37,0.46,22.68l0.01,5.43
	c1.53-0.85,2.63-1.93,3.31-3.22c0.24-0.45,0.89-1.82,1.94-4.13c0.48-1.09,0.93-1.68,1.33-1.76c0.65-1.25,1.54-2.45,2.67-3.58
	c1.62-1.62,3.18-2.43,4.67-2.43c1.86,0,3.28,1.15,4.25,3.46c0.32,0.76,0.57,1.55,0.76,2.39l0.59-0.5c1.9-1.66,3.25-2.73,3.88-3.4
	l0.48-0.5c-0.49-0.69-1.19-1.72-2.12-3.09c-0.2-0.24-0.71-0.77-1.52-1.58c-0.45-0.45-0.67-0.95-0.67-1.52
	c0-0.89,0.12-1.91,0.36-3.06c0.24-1.15,0.44-1.73,0.61-1.73c0.24,0,1.18,0.54,2.82,1.61c1.64,1.07,2.88,1.93,3.73,2.58
	c0.45,0.36,0.67,0.59,0.67,0.67v0.06c0,0.12-0.34,0.18-1.03,0.18c-1.29,0-1.94,0.06-1.94,0.18c0,0.2,0.61,0.93,1.82,2.18
	c1.5-2.35,3.62-5.36,6.37-9.04c2.59-2.95,4.43-4.43,5.52-4.43c0.69,0,1.03,0.59,1.03,1.76c0,1.25-0.34,2.93-1.03,5.04
	c-0.65,1.94-1.32,3.52-2,4.73c-1.01,1.7-2.51,4-4.49,6.92c2.02,2.31,3.38,4.37,4.07,6.19c0.44,1.29,0.67,2.93,0.67,4.92
	c0,0.77-0.17,1.77-0.51,3c-0.34,1.23-0.72,2.13-1.12,2.7c-0.77,1.21-2.12,2.43-4.06,3.64c-2.1,1.33-3.9,2-5.4,2
	c-2.04,0-3.21-1.29-3.5-3.86c-0.4,1.59-0.6,2.96-0.6,4.09c0,1.6,0.37,2.87,1.12,3.82c0.79,1.03,1.89,1.55,3.31,1.55
	c2.21,0,4.76-1.36,7.68-4.07c0.32-0.32,2.92-3.13,7.8-8.4c7.12-7.72,13.49-11.59,19.11-11.59c1.62,0,3,0.49,4.16,1.47
	c1.15,0.98,1.73,2.13,1.73,3.44c0,1.62-0.27,3.04-0.82,4.28c-0.2,0.45-0.34,0.67-0.43,0.67c-0.1,0-0.27-0.22-0.52-0.67
	c-1.15-2.08-2.92-3.12-5.31-3.12c-4.31,0-9.24,2.81-14.8,8.43c-3.09,3.38-6.19,6.75-9.28,10.13c-2.69,2.77-5.23,4.16-7.61,4.16
	c-2,0-3.75-0.9-5.25-2.7c-1.58-1.88-2.37-4.18-2.37-6.89c0-2.67,0.78-5.92,2.35-9.75c0.21-1.12,0.52-2.21,0.93-3.26
	c0.73-1.9,2.1-4.45,4.12-7.65c-0.85-0.85-1.6-1.66-2.24-2.43c-2.36,2.23-3.03,2.2-5.69,3.36l-0.45,0.19
	C51.46,64.22,51.53,65.1,51.53,66.03z"/>
</svg>
