<svg id="Layer_1" data-name="Layer 1" xmlns="http://www.w3.org/2000/svg" viewBox="0 0 540.41 545.96"><defs><style>.cls-1{fill:#c49240;}.cls-2{fill:#004e5e;}.cls-3{fill:#aa6601;}.cls-4{fill:#aa6701;}.cls-5{fill:#b17009;}.cls-6{fill:#b1720c;}.cls-7{fill:#b2710b;}.cls-8{fill:#b3730c;}.cls-9{fill:#ad6902;}</style></defs><path class="cls-1" d="M385,369c-3.8-2.7-6.86-6.22-10-9.6-3.82-4.12-8.62-7.11-12.12-11l-28,28L362,403.5a4.92,4.92,0,0,1,0,.72.77.77,0,0,1-.15.43l-42.77,42.79c-.09.09-.05.31,0,0l19.06,19.06c-2.36,5.4-4.14,10-6.48,14.16l-32.42-32.42c8.83-8.83,17.78-18,27-26.87,3.07-3,5.24-6.69,8.42-9.55,2.17-1.94,4-4.29,6.64-5.7.75-.39,1.68-1.08,1.73-1.81-6.5-6.51-12.81-12.81-18.82-18.82l-63.72,63.72,58.81,58.81c-2,3.92-3.12,8.56-6.38,11.63L241.5,448.32,316,373.81V254.14H433.67L510.83,177c1.28-.14,1.76,1.16,2.53,1.92,18.17,18.13,36.42,36.18,54.41,54.48,7,7.08,14.9,13.08,21.63,20.63H705.85V372.35c15.61,15.61,30.79,31.33,46.59,46.39q13.83,13.18,27.4,26.63c.8.79,1.87,1.38,2.07,2.16L700,529.4l-4.85-14.21L762,448.38a5,5,0,0,0,0-.55c0-.15,0-.35-.13-.44q-31.62-31.65-63.18-63.2l-19.25,19.26L723.2,447.2c-2,3.48-21.78,23.68-34.22,35l-4.22-14.5,9.65-9.65,9.53-9.53-44.5-44.5L687,376.47l-28-28c-5.69,5.69-11.83,11.87-18,18-1.26,1.25-2.24,2.84-4,3.54-.35-1.95-1.87-.95-2.79-.95-12.49-.07-25,0-37.46-.08-1.25,0-2.62.5-3.75-.45V323c2.12-3.2,5.15-5.54,7.79-8.25,4.29-4.42,8.69-8.73,13.21-13.25-1.71-1.71-3.38-3.47-5.15-5.13-7.1-6.67-12.87-14.6-20.1-21.17a16.53,16.53,0,0,1-2.06-3c-3.63,3.1-6.75,5.41-9.45,8.15-4.75,4.79-10.15,8.85-14.94,13.61-2,2-4.41,3.78-6.83,6-3.44-4-8-6.79-11.7-10.62-9.63-9.9-19.5-19.58-29.26-29.37-1-1-1.93-2.24-2.58-3-2.07,0-2.57,1.21-3.35,2-3.69,3.61-7.08,7.56-11,10.88-11.13,9.38-20.69,20.39-31.25,30.2-1.53-.12-2-1.38-2.84-2.08-7.08-5.7-13.09-12.55-19.82-18.61-2.64-2.38-5.36-4.71-8-7.16-3.48,1.95-5,5.75-7.7,8.44a90.49,90.49,0,0,0-7.6,8.26c-3.58,4.55-8.1,8.35-12.09,12.34L431,324v44.75c0,.68,0,1.37-1,1.29-.18-1.67-1.48-1-2.28-1-12.46,0-24.91,0-37.37,0-1.69,0-3.51.5-5-.83Zm-55-10,.43,1.05c8.84-8.68,17.19-17.75,26.81-25.45V296h37.19c8.74-8.36,16.63-17.46,24.94-27H330c-2.14.79-.93,2.58-.93,3.79q-.13,41.2-.07,82.42c0,1,0,2,0,3A.77.77,0,0,0,330,359Zm297-63c0,1.36,1,1,1.77,1,4.29,0,8.59,0,12.88,0h20.88c1,1.08-.43,2.77,1.47,3v33.51l8.83,8.82C679,348.46,684.93,354.84,692,360c2.14-.79.93-2.58.93-3.79q.14-41.71.07-83.42c0-1,0-2,0-3a.77.77,0,0,0-1-.79H603.75a.85.85,0,0,0-.42.17c-.12.09-.2.23-.05.05,4.12,5.87,9.15,10.82,14.21,15.74A63.68,63.68,0,0,1,627,296ZM511,236.48l44,44c6.61-6.61,13.17-13.18,19.49-19.49l-63.33-63.33c-3.93,2.21-7.19,5.91-10.68,9.37q-5.49,5.46-10.95,11l-10.6,10.6-11,11c-3.53,3.53-7.1,7-10.59,10.61s-7.43,7-10.7,11.06c3.5,3.5,6.82,6.75,10.06,10.08s6.64,6.12,9.4,10.08ZM417,355.93V330.5l-20.33-20.32H371.1v26.54c7.74,5.57,13.59,13,20.45,19.21Zm189.16-26.58v26.56h25.43l18.27-18.27V310.11H625.4Z" transform="translate(-241.5 -176.96)"/><path class="cls-1" d="M692,641V571.45c4.35-1.68,9-2.16,13.75-3.52v86.91h-125c-24.12,21.84-46,45.52-69.35,68.09l-4.7-4.7c-13-13-25.81-26-38.91-38.83-8.27-8.09-17.11-15.57-24.95-24.23H316.57c-.85-4.5-1.14-72.52-.41-92.25,4.54,1.15,8.91,2.76,13.84,3.29V641c.79,2.14,2.58.93,3.79.93q47.2.14,94.42.07c1,0,2,0,3,0a.77.77,0,0,0,.79-1v-1.5c-1.7-.37-2.69-1.7-3.82-2.83Q416.31,624.84,404.5,613H357.25V572L371,576.24v22.59h39.26c11.63,11.07,22,23,34.32,32.95a45.93,45.93,0,0,0,7.17-4.79c4.77,1.52,7.68,5.94,12.75,7.63-3.73,4.2-8.68,6.27-12.52,9.82,19.45,19.84,40.28,38.18,59,58.24l58-58c-1.91-3.37-6.81-4-9.33-7.84,4.86-2.13,6.74-7.91,12.38-9l5.79,4.15a1.94,1.94,0,0,0,.48,0,.85.85,0,0,0,.42-.19L611.53,599h38.25V581.56l14-4.67v36H618.17l-27.83,27.84.66.27c.79,2.14,2.58.93,3.79.93q46.71.14,93.42.07c1,0,2,0,3,0A.77.77,0,0,0,692,641Z" transform="translate(-241.5 -176.96)"/><path class="cls-2" d="M547,484c-3.16,0-6.33,0-9.49,0-10.37-.12-20.14-2.73-29.75-6.59a97.85,97.85,0,0,1-19.23-10.28c-2.77-1.9-5.34-4-8-6-4.19-3-7.52-6.82-11.16-10.35A71.39,71.39,0,0,1,454.54,430c-2.83-6-4.7-12.38-6.7-18.73-3.55-11.31-3-22.8-2.66-34.27A47.19,47.19,0,0,1,447,365.28c1.07-3.71,2-7.49,3.37-11.09,2.78-7.23,5.91-14.29,10.48-20.66,1.95-2.72,3.58-5.68,6.1-7.93,1.72-1.54,2.49-3.71,4.16-5.32A137.15,137.15,0,0,1,490.81,305c8.83-5.84,18.79-9.24,28.61-12.93,2.48.5,4.55-1.64,7.05-1.09,1.53.34,2.7-2.17,4.45-.58a32.81,32.81,0,0,0-7.82,6c-2.14,2.47-5.25,3.8-7.37,6.35-4.05,4.85-8.77,9.23-12.21,14.47-4.31,6.55-8.16,13.51-10.46,21.11-.72,2.36-2.16,4.55-2.05,7.14.1,2.43-1.7,4.58-1,7.08-2.15,6.6-1.07,13.42-.83,20.07.23,6.19,2.23,12.24,4.1,18.22,2.19,7.05,5.83,13.33,9.8,19.41,2.85,4.37,6.6,8.07,10.36,11.73a83.74,83.74,0,0,0,14.83,11.19,69.6,69.6,0,0,0,15.57,7.11c3.55,1.13,7.22,1.89,10.86,2.72,9.12,2.08,18.38.78,27.57.91,4.68.07,9.24-1.57,13.57-3.31,9-3.61,17.58-7.83,25.25-13.94,2.61-2.09,4.82-4.62,7.85-6.8.26,1.95-1.5,3.15-1,4.75-2.62,3.51-4.11,7.66-6.19,11.46-3,5.48-6.94,10.35-9.71,15.94-2.7.69-5.19,2-7.77,2.86-8.25,2.65-15.89,6.59-23.75,10.1-5.5,2.45-10.83,5.19-16.06,8.14C558.45,476.47,552.61,480.06,547,484Z" transform="translate(-241.5 -176.96)"/><path class="cls-1" d="M372.83,432.86l6.28,3.34c-1.94,6.29-4.72,12-7,17.81-2.61,6.59-5.72,13-8.35,19.54-1.53,3.82-3.36,7.61-5.16,11.36a115.81,115.81,0,0,0-5.07,11.39c-1.34,3.8-4.3,6.94-4.49,11.15-2.61,3.54-3.87,7.74-5.55,11.71-2,4.67-4.53,9.15-5.7,14.51,10.17,1.62,19.59,5.21,29.09,8.43,4.79,1.62,9.49,3.63,14.21,5.5a434.94,434.94,0,0,1,44,20.49c6.16,3.29,12.19,6.89,18.22,10.44,8.78,5.16,17.18,10.85,25.63,16.5,4.33,2.9,8.52,6,12.73,9.11a190.35,190.35,0,0,1,25.27,22.27c1.68,1.77,4.24,2.45,5.43,4.49,3.67-2.45,6.58-5.71,10.25-8.11a52.53,52.53,0,0,0,5.91-5c4.34-3.83,9.2-6.93,13.75-10.44,4.84-3.73,10.07-7,15.21-10.3,6.29-4.08,12.62-8.11,19-12,6.23-3.8,12.59-7.47,19-10.79,7.78-4,15.4-8.46,23.77-11.38,3.3-1.15,6.41-3,9.64-4.46a151,151,0,0,1,15.49-6c5.11-1.68,10.27-3.58,15.69-4.45,5.92-1,11.65-3.08,17.76-3,2.36-1.57,5.41-.12,7.49-1.19,2.52-1.29,4.84-.27,7.11-.9,2.46,4.34,2.65,9.28,4.41,13.89-5.5,1.12-11.06,2.15-16.57,3.35-5.9,1.27-11.81,2.61-17.62,4.42q-8.41,2.63-16.77,5.43a121.19,121.19,0,0,0-12.44,5c-5.73,2.66-11.45,5.42-17.25,7.84-6.05,2.53-11.47,6.09-17.32,8.87a89.24,89.24,0,0,0-10,6q-12.42,8.1-24.72,16.37c-4.32,2.92-8.52,6-12.74,9.07-4.39,3.18-8.74,6.41-13,9.79-3.58,2.84-6.9,6.06-11,8.33-2.35,1.3-4.11,3.6-6.22,5.36-2.86,2.39-6.24,4.23-8.64,7.5l-4.86-4.86a118.39,118.39,0,0,0-12.57-10.66c-2.3-1.76-4.33-3.86-6.63-5.68-5.63-4.46-11.48-8.64-17-13.16-6.32-5.14-13.43-9.08-19.71-14.23a52.91,52.91,0,0,0-7.91-5c-6.4-3.54-12.4-7.71-18.85-11.17s-12.86-6.8-19.35-10.06c-6.18-3.11-12.76-5.41-19-8.33-8-3.7-16.14-6.91-24.34-10.06-5.05-1.94-10.12-3.84-15.29-5.28-5.53-1.55-10.9-3.62-16.57-4.77a52.52,52.52,0,0,1-9.88-2.64c-1.94-.82-4.5.18-6.36-1.53,1.72-5.09,4.71-9.62,6.71-14.56,2.21-5.45,5.17-10.52,7.39-15.94,2.75-6.73,6.68-12.92,9.44-19.59,4.5-10.87,10.56-20.95,15.2-31.7,3.68-8.52,8.2-16.6,12.07-25C366.51,436.59,368.66,434,372.83,432.86Z" transform="translate(-241.5 -176.96)"/><path class="cls-1" d="M547,484c5.61-3.94,11.45-7.53,17.42-10.9,5.23-3,10.56-5.69,16.06-8.14,7.86-3.51,15.5-7.45,23.75-10.1,2.58-.83,5.07-2.17,7.77-2.86,3.34-1.18,6.7-2.3,10-3.54,4.76-1.78,9.49-3.64,14.23-5.46a102.68,102.68,0,0,1,13.27-4.17c3.61-.86,7.15-2.07,10.8-2.83,1.8-.38,3.47-1.76,5.46-.72.93,2.27-.53,4.74,1,7.12,1.13,1.81-.24,4.35,1.15,6.53.68,1.06.21,2.92.09,4.41s1.44,2.4,1.12,4.1a8.51,8.51,0,0,0,.81,5.62c.84,1.61-.78,3.95,1.1,5.53-.67,3,1.44,5.6,1,8.58a9.87,9.87,0,0,0,.62,3.19c.9,4.14,1.41,8.38,2.29,12.56.36,1.68,0,3.39.95,5.12s-.42,3.69,1,5.62c.87,1.22.42,3.29.91,5a26.45,26.45,0,0,1,1.05,7c0,2.82,1.75,5.27,1.17,8.07,2.12,2.56-.22,6.14,2.24,8.54-1.91,1-3.54,2.17-5.57,1.64s-3.7.83-5.58,1.06-3.66-.27-5.69.76-4.62.51-7,1.05c-2.89.65-5.78,1.31-8.63,2.13-4.61,1.34-9.24,2.62-13.85,4a96.9,96.9,0,0,0-9.57,3.44c-8.81,3.62-17.81,6.94-26.14,11.65-6.75,3.81-13.63,7.38-20.29,11.37-8.73,5.24-17.26,10.74-25.57,16.6-4.17,2.93-8.22,6-12.2,9.21-8.93,7.2-16.2,16-25,23.94.11-2.32-1.06-4.48.67-6.55.26-.3.14-.93.15-1.42,0-.66,0-1.33,0-2,0-6,0-12,0-18a152.25,152.25,0,0,1,.84-17.58c.7-5.91-.56-12.08.33-17.94,1.15-7.56-.09-15.15,1-22.56.8-5.41.49-10.74.83-16.1.14-2.21,1.6-4.23.91-6.4C528.19,499.59,537.47,491.67,547,484ZM528.49,586A120,120,0,0,1,542.3,574c4.47-3.33,8.82-6.86,13.38-10.07A308.41,308.41,0,0,1,584,546.58c8.76-4.88,17.95-8.91,27.07-13.05a69.19,69.19,0,0,1,7.57-3.39c6.2-1.95,12-4.84,18.27-6.62,6.69-1.91,13.11-4.77,21.2-6-2.66-1.58-1.69-3.67-2.17-5.45-.69-2.52-.39-5.22-1.16-7.52a15.73,15.73,0,0,1-.72-4.66c-.08-1.77-1.76-3.18-1-5.09.64-1.72-1.3-3-1-4.57.68-3.33-1-6.33-1.2-9.58a25,25,0,0,0-1-7,11.06,11.06,0,0,1-.71-4.66c.12-1.71-1.64-2.78-1.11-4.6.59-2-.52-3.69-1.5-5.48-2.11.5-4.27.91-6.36,1.53-4.88,1.47-9.76,2.95-14.58,4.6-6.56,2.24-13.15,4.44-19.57,7-7.71,3.11-15.25,6.63-22.87,9.95-5,2.16-9.45,5.31-14.34,7.62a53.82,53.82,0,0,0-8.44,4.83c-7.58,5.48-15.74,10.24-21.57,18.05-2.94,3.94-5.76,8-8.85,12.18.58,2.39-.6,4.83-.77,7.33-.36,5.31,0,10.66-.14,16s-1.28,10.32-1,15.58c.29,6.49.05,13,.09,19.49C528,584,527.65,585,528.49,586Z" transform="translate(-241.5 -176.96)"/><path class="cls-1" d="M508,620.09c-1.44-1.74-2.13-2.64-2.89-3.47-6-6.61-13.07-12.1-19.51-18.25-4.11-3.91-9-7.22-13.36-10.88-8.19-6.85-17-12.73-25.89-18.53-4.54-3-9.3-5.61-14-8.28q-12.35-7-25.14-13c-5.29-2.49-10.74-4.63-16.17-6.82-7.76-3.12-15.73-5.48-23.64-8.11A80.82,80.82,0,0,0,357,530.11c-1.86-.35-3.45-2.11-6.44-.21,2.79-6.69,5.3-12.21,7.39-17.87,2.73-7.39,6.73-14.21,9.26-21.67.63-1.88,1.92-3.53,2.78-5.35,3-6.4,6.14-12.78,9-19.28,2.47-5.66,5.31-11.13,8-16.67,1.28-2.63,2.45-5.32,3.47-8.06a11.15,11.15,0,0,1,2.85-3.8c5.44-1.26,10.44,1,15.46,2.21a191.54,191.54,0,0,1,21.71,6.67c7.8,2.9,15.58,5.85,22.71,10.41,4.16,2.65,8.53,5.09,12.9,7.44,3.63,2,6.8,4.56,10.09,6.92a132.86,132.86,0,0,1,20.44,18.29c4.95,5.43,9.09,11.51,13.3,17.5a4.34,4.34,0,0,1,1,2c.1,4.05,1.88,8,1,12.08-2,9.48,0,19.12-1.11,28.57s.14,19.16-1.06,28.57c-1.14,8.91-.48,17.75-.69,26.61-.06,2.49-1.54,4.54-1.18,7.09S508,616.48,508,620.09Zm-10-31.62a133.16,133.16,0,0,1,.88-15.17c1-7.12-.8-14.45,1.15-21.56-.52-9.56.64-19.06,1-28.59A15.44,15.44,0,0,0,497.62,513c-2.75-3.68-5.38-7.47-8-11.22-3.55-5.11-8.75-8.19-12.84-12.54-2.34-.11-3.31-2.35-5-3.43-4.92-3-9.66-6.37-14.63-9.37A143.19,143.19,0,0,0,430.26,464c-3.66-1.28-7.4-2.29-11.08-3.45a100.2,100.2,0,0,0-16.54-3.43c-1-.13-1.48-1.08-2.28-.89-1.67,3.62-3.24,7.16-4.89,10.62-2.91,6.13-5.53,12.38-8.34,18.55-3.82,8.41-7.53,16.87-11.34,25.29A14.42,14.42,0,0,0,374,517c1.29,0,2.35-.27,3.22,0,8.71,3.1,17.4,6.26,26,9.68,7,2.8,13.93,5.82,20.67,9.25s14.19,6.26,20.69,10.32C452,551,460,554.84,466.5,561c4.13,1.25,6.8,4.66,9.95,7.21s6.75,5.12,9.65,8.3C489.72,580.5,493.69,584.19,498,588.47Z" transform="translate(-241.5 -176.96)"/><path class="cls-3" d="M432,641a.77.77,0,0,1-.79,1c-1,.06-2,0-3,0q-47.2,0-94.42-.07c-1.21,0-3,1.21-3.79-.93Z" transform="translate(-241.5 -176.96)"/><path class="cls-4" d="M692,641a.77.77,0,0,1-.79,1c-1,.06-2,0-3,0q-46.71,0-93.42-.07c-1.21,0-3,1.21-3.79-.93Z" transform="translate(-241.5 -176.96)"/><path class="cls-5" d="M593,323v45.52c1.13,1,2.5.45,3.75.45,12.48,0,25,0,37.46.08.92,0,2.44-1,2.79.95H592.5c-1-.94-.47-2.17-.47-3.25q-.06-20.47,0-41C592.05,324.87,591.05,323.35,593,323Z" transform="translate(-241.5 -176.96)"/><path class="cls-6" d="M385,369l.35-.85c1.49,1.33,3.31.83,5,.83,12.46,0,24.91,0,37.37,0,.8,0,2.1-.7,2.28,1-14.08,0-28.15,0-42.23-.05C386.86,370,385.34,370.94,385,369Z" transform="translate(-241.5 -176.96)"/><path class="cls-7" d="M692,360V269a.77.77,0,0,1,1,.79c.06,1,0,2,0,3q0,41.71-.07,83.42C692.93,357.42,694.14,359.21,692,360Z" transform="translate(-241.5 -176.96)"/><path class="cls-8" d="M330,269v90a.77.77,0,0,1-1-.79c-.06-1,0-2,0-3q0-41.2.07-82.42C329.07,271.58,327.86,269.79,330,269Z" transform="translate(-241.5 -176.96)"/><path class="cls-9" d="M627,296h36.68c.65,1.4.15,2.73.32,4-1.9-.23-.5-1.92-1.47-3H641.65c-4.29,0-8.59,0-12.88,0C628.05,297,627,297.36,627,296Z" transform="translate(-241.5 -176.96)"/></svg>