<svg id="Layer_1" data-name="Layer 1" xmlns="http://www.w3.org/2000/svg" viewBox="0 0 86 87"><defs><style>.cls-1{fill:#ebebeb;}.cls-2{fill:#ffb400;}</style></defs><path class="cls-1" d="M25.18,32.71a10.46,10.46,0,0,1-1.59-1.53c-.61-.66-1.38-1.13-1.93-1.75L17.2,33.89l4.32,4.32v.11a.09.09,0,0,1,0,.07l-6.8,6.82s0,0,0,0l3,3c-.38.86-.66,1.59-1,2.25l-5.16-5.16c1.4-1.41,2.83-2.87,4.3-4.29.48-.47.83-1.06,1.34-1.52a5.72,5.72,0,0,1,1-.91c.12-.06.27-.17.28-.28-1-1-2-2.05-3-3L5.36,45.49l9.36,9.37a6.43,6.43,0,0,1-1,1.86L2.34,45.35,14.2,33.48V14.41H32.92L45.2,2.11c.2,0,.28.19.4.31,2.9,2.89,5.8,5.76,8.66,8.68,1.12,1.13,2.37,2.09,3.44,3.29H76.24V33.24c2.48,2.49,4.9,5,7.41,7.4q2.2,2.1,4.36,4.24c.13.12.3.22.33.34l-13,13.05L74.53,56,85.17,45.36v-.09a.1.1,0,0,0,0-.07L75.1,35.13,72,38.2l7,7a63.49,63.49,0,0,1-5.45,5.58l-.67-2.31,1.54-1.54,1.51-1.52-7.08-7.09,4.39-4.39-4.46-4.46-2.86,2.87a2,2,0,0,1-.64.56c-.06-.31-.3-.15-.44-.15h-6c-.19,0-.41.08-.59-.08V25.38a9.65,9.65,0,0,1,1.24-1.32c.68-.7,1.38-1.39,2.1-2.11-.27-.27-.54-.55-.82-.81-1.13-1.07-2-2.33-3.2-3.38a2.27,2.27,0,0,1-.33-.48c-.57.5-1.07.87-1.5,1.3-.76.77-1.62,1.41-2.38,2.17-.32.32-.7.6-1.08,1-.55-.64-1.28-1.08-1.87-1.69-1.53-1.58-3.1-3.13-4.65-4.69a5.06,5.06,0,0,1-.41-.47c-.33,0-.41.19-.54.32-.58.57-1.12,1.2-1.75,1.73-1.77,1.49-3.29,3.25-5,4.81-.24,0-.32-.22-.45-.33-1.13-.91-2.09-2-3.16-3-.42-.37-.85-.75-1.27-1.14-.55.31-.8.92-1.23,1.35a14.91,14.91,0,0,0-1.2,1.31,21.15,21.15,0,0,1-1.93,2l3.62,3.63v7.13c0,.11,0,.22-.16.2,0-.26-.24-.15-.36-.15H26c-.27,0-.56.08-.8-.14Zm-8.76-1.59.07.16a58.15,58.15,0,0,1,4.27-4.05V21.08h5.92c1.39-1.34,2.64-2.79,4-4.31H16.42c-.34.13-.14.41-.14.61q0,6.56,0,13.13V31a.07.07,0,0,0,0,.06s0,0,0,0a.09.09,0,0,0,.06,0Zm47.27-10c0,.21.16.16.28.16h5.37c.16.17-.07.44.24.47v5.34L71,28.46a27,27,0,0,0,3,2.81c.34-.12.15-.41.15-.6q0-6.65,0-13.29V16.9a.13.13,0,0,0,0-.06l0-.05-.06,0H60l-.07,0s0,0,0,0a19.27,19.27,0,0,0,2.26,2.51A9.87,9.87,0,0,1,63.69,21.08ZM45.23,11.59l7,7,3.1-3.1L45.25,5.41a9,9,0,0,0-1.7,1.49L41.81,8.65l-1.69,1.69-1.75,1.75c-.56.57-1.13,1.12-1.68,1.69S35.51,14.9,35,15.55l1.6,1.6a13.47,13.47,0,0,1,1.49,1.61Zm-15,19V26.57L27,23.34H23v4.23a36.47,36.47,0,0,1,3.26,3.06Zm30.1-4.24v4.23h4.05l2.91-2.91V23.32h-3.9Z" transform="translate(-2.34 -2.11)"/><path class="cls-1" d="M74,76.05V65c.69-.27,1.43-.34,2.19-.56V78.26H56.33c-3.84,3.48-7.32,7.25-11,10.85l-.75-.75c-2.06-2.07-4.1-4.14-6.19-6.19-1.31-1.29-2.72-2.48-4-3.86H14.29c-.14-.72-.18-11.56-.07-14.7a15.35,15.35,0,0,0,2.2.52V76.05c.13.34.41.15.61.15q7.5,0,15,0h.54l0,0a.14.14,0,0,0,0-.06v-.3a1.31,1.31,0,0,1-.61-.45q-1.89-1.87-3.77-3.77H20.76V65.06l2.19.67v3.6H29.2c1.85,1.77,3.5,3.67,5.46,5.25a7.07,7.07,0,0,0,1.14-.76c.76.24,1.22,1,2,1.22-.6.66-1.38,1-2,1.56,3.09,3.16,6.41,6.08,9.39,9.28l9.23-9.24c-.31-.54-1.09-.64-1.49-1.25.77-.34,1.07-1.26,2-1.43l.92.66h.08l.07,0,5.22-5.23h6.08V66.58l2.23-.74v5.73H62.28L57.85,76l.11,0c.13.34.41.15.6.15q7.44,0,14.87,0H74l.05,0,0-.06A.13.13,0,0,0,74,76.05Z" transform="translate(-2.34 -2.11)"/><path class="cls-2" d="M51,51H49.45A13,13,0,0,1,44.71,50a16,16,0,0,1-3.06-1.63c-.44-.31-.85-.64-1.27-1a16.41,16.41,0,0,1-1.78-1.65,11.24,11.24,0,0,1-2.36-3.31,23.55,23.55,0,0,1-1.06-3A16.23,16.23,0,0,1,34.75,34,7.76,7.76,0,0,1,35,32.12c.17-.6.32-1.2.54-1.77a14.15,14.15,0,0,1,1.67-3.29,7.11,7.11,0,0,1,1-1.27c.27-.24.39-.59.66-.85A21.75,21.75,0,0,1,42,22.51a22.2,22.2,0,0,1,4.55-2.06c.39.08.72-.26,1.12-.17.24,0,.43-.35.71-.1a5.55,5.55,0,0,0-1.25,1c-.34.39-.83.6-1.17,1A26.64,26.64,0,0,0,44,24.46a13,13,0,0,0-1.67,3.36A3.53,3.53,0,0,0,42.05,29c0,.39-.27.73-.16,1.13a9.07,9.07,0,0,0-.13,3.2,11,11,0,0,0,.65,2.9A12.64,12.64,0,0,0,44,39.28a10.84,10.84,0,0,0,1.65,1.87A12.82,12.82,0,0,0,48,42.93a11.29,11.29,0,0,0,2.47,1.14c.57.18,1.15.3,1.73.43a21.48,21.48,0,0,0,4.39.15,5.67,5.67,0,0,0,2.16-.53,16,16,0,0,0,4-2.22c.41-.34.76-.74,1.25-1.09,0,.31-.24.5-.16.76a14,14,0,0,0-1,1.83c-.47.87-1.1,1.65-1.54,2.54-.43.11-.83.31-1.24.45A37,37,0,0,0,56.29,48c-.87.39-1.72.83-2.55,1.3A31.54,31.54,0,0,0,51,51Z" transform="translate(-2.34 -2.11)"/><path class="cls-1" d="M23.24,42.88l1,.54c-.31,1-.75,1.91-1.11,2.83s-.91,2.08-1.33,3.12c-.25.61-.54,1.21-.82,1.81A15.39,15.39,0,0,0,20.17,53c-.21.61-.69,1.11-.72,1.78a8.89,8.89,0,0,0-.88,1.87A12.48,12.48,0,0,0,17.66,59a28.66,28.66,0,0,1,4.63,1.34c.77.26,1.51.58,2.26.88a70.82,70.82,0,0,1,7,3.26c1,.53,1.94,1.1,2.9,1.67,1.39.82,2.73,1.73,4.07,2.63.69.46,1.36,1,2,1.45a30.12,30.12,0,0,1,4,3.55c.27.28.68.39.87.71.58-.39,1-.91,1.63-1.29a8.84,8.84,0,0,0,.94-.8c.69-.61,1.46-1.1,2.19-1.66s1.6-1.12,2.42-1.64c1-.65,2-1.29,3-1.91s2-1.19,3-1.72a30,30,0,0,1,3.79-1.82A16.18,16.18,0,0,0,64,62.89a23.75,23.75,0,0,1,2.47-1A16.13,16.13,0,0,1,69,61.23a15.94,15.94,0,0,1,2.83-.48c.37-.25.86,0,1.19-.19s.77,0,1.13-.14a15.34,15.34,0,0,1,.7,2.21c-.87.18-1.76.34-2.63.53s-1.88.42-2.81.71l-2.67.86a21,21,0,0,0-2,.8c-.91.42-1.82.86-2.74,1.25s-1.83,1-2.76,1.41a16,16,0,0,0-1.59,1q-2,1.29-3.93,2.61c-.69.46-1.36.95-2,1.44s-1.39,1-2.07,1.56a12.6,12.6,0,0,1-1.75,1.33,7.82,7.82,0,0,0-1,.85,7.71,7.71,0,0,0-1.37,1.2l-.78-.77a17.1,17.1,0,0,0-2-1.7c-.36-.28-.69-.62-1.05-.91-.9-.71-1.83-1.38-2.71-2.1s-2.13-1.44-3.13-2.26a8.36,8.36,0,0,0-1.26-.8c-1-.56-2-1.23-3-1.78s-2.05-1.08-3.08-1.6-2-.86-3-1.33c-1.27-.59-2.56-1.1-3.87-1.6a24.07,24.07,0,0,0-2.43-.84c-.88-.25-1.74-.58-2.64-.76a7.77,7.77,0,0,1-1.57-.43c-.31-.13-.72,0-1-.24.27-.81.75-1.53,1.06-2.32s.83-1.68,1.18-2.54c.44-1.07,1.06-2.06,1.5-3.12.72-1.73,1.68-3.34,2.42-5,.59-1.36,1.31-2.65,1.92-4A1.84,1.84,0,0,1,23.24,42.88Z" transform="translate(-2.34 -2.11)"/><path class="cls-1" d="M51,51c.89-.62,1.82-1.2,2.77-1.73A26.73,26.73,0,0,1,56.29,48a36.81,36.81,0,0,1,3.77-1.61c.42-.13.81-.35,1.24-.46s1.07-.36,1.59-.56c.76-.28,1.51-.58,2.27-.87a15.63,15.63,0,0,1,2.11-.66c.57-.14,1.14-.33,1.72-.46.28-.06.55-.28.87-.11.14.36-.09.76.16,1.13s0,.7.18,1.05c.11.16,0,.46,0,.7s.23.38.18.65a1.4,1.4,0,0,0,.13.9c.13.25-.12.63.18.88-.11.48.22.89.15,1.37a1.71,1.71,0,0,0,.1.5c.15.66.23,1.34.37,2a2.36,2.36,0,0,0,.15.81c.15.28-.07.59.16.9s.06.52.14.79a4.28,4.28,0,0,1,.17,1.12c0,.45.28.84.19,1.28.33.41,0,1,.35,1.37a1.23,1.23,0,0,1-.88.26c-.33-.09-.59.13-.89.17a2.1,2.1,0,0,0-.91.12,4.79,4.79,0,0,1-1.11.16c-.46.11-.92.21-1.37.34l-2.21.64c-.52.16-1,.34-1.52.55a36.88,36.88,0,0,0-4.16,1.86c-1.08.6-2.17,1.17-3.23,1.81q-2.09,1.24-4.07,2.64c-.66.47-1.31,1-1.94,1.47-1.42,1.15-2.58,2.55-4,3.82,0-.37-.17-.72.11-1,0,0,0-.15,0-.22V68.11a26.12,26.12,0,0,1,.13-2.8c.12-.94-.08-1.93.06-2.86.18-1.21,0-2.42.16-3.6.12-.86.07-1.71.13-2.56,0-.35.25-.68.14-1A15.55,15.55,0,0,1,51,51ZM48,67.29a19.07,19.07,0,0,1,2.2-1.91c.71-.53,1.4-1.1,2.13-1.61A48.1,48.1,0,0,1,56.85,61c1.39-.78,2.85-1.42,4.3-2.08a9.31,9.31,0,0,1,1.21-.54c1-.31,1.91-.77,2.91-1.06a24.27,24.27,0,0,1,3.37-.95c-.42-.26-.27-.59-.35-.87s-.06-.83-.18-1.2a2.66,2.66,0,0,1-.12-.74c0-.29-.28-.51-.15-.82s-.21-.47-.16-.72a6.11,6.11,0,0,0-.19-1.53,4.27,4.27,0,0,0-.16-1.12,1.86,1.86,0,0,1-.12-.74c0-.27-.26-.44-.17-.73A1.17,1.17,0,0,0,66.8,47c-.34.08-.68.14-1,.24-.78.23-1.56.47-2.32.73-1,.36-2.1.71-3.12,1.12-1.23.49-2.43,1-3.64,1.58-.79.35-1.5.85-2.28,1.22a7.75,7.75,0,0,0-1.34.77,14.52,14.52,0,0,0-3.44,2.87c-.46.63-.91,1.28-1.4,1.94a3.93,3.93,0,0,1-.13,1.17c0,.85,0,1.7,0,2.55s-.2,1.65-.16,2.49c.05,1,0,2.07,0,3.1A.5.5,0,0,0,48,67.29Z" transform="translate(-2.34 -2.11)"/><path class="cls-1" d="M44.75,72.72c-.23-.28-.34-.42-.46-.55-.95-1.06-2.08-1.93-3.1-2.91-.66-.62-1.44-1.15-2.13-1.73a42.46,42.46,0,0,0-4.12-3c-.72-.48-1.48-.89-2.23-1.32q-2-1.11-4-2.07c-.84-.4-1.71-.74-2.57-1.09-1.24-.49-2.51-.87-3.76-1.29a13.91,13.91,0,0,0-1.66-.42c-.3-.05-.55-.33-1,0,.44-1.07.84-2,1.17-2.85.44-1.18,1.07-2.26,1.48-3.45a7.75,7.75,0,0,1,.44-.86c.48-1,1-2,1.43-3.07s.85-1.77,1.27-2.65c.21-.42.39-.85.56-1.29a1.67,1.67,0,0,1,.45-.6,5.29,5.29,0,0,1,2.46.35A29.85,29.85,0,0,1,32.41,45,18.2,18.2,0,0,1,36,46.65c.66.42,1.36.81,2,1.19a14.75,14.75,0,0,1,1.61,1.1,20.87,20.87,0,0,1,3.25,2.91,28.46,28.46,0,0,1,2.12,2.79.74.74,0,0,1,.16.32,8.38,8.38,0,0,1,.15,1.93c-.31,1.51,0,3-.17,4.55s0,3-.17,4.55a40.09,40.09,0,0,0-.11,4.24c0,.4-.25.72-.19,1.13A9.83,9.83,0,0,1,44.75,72.72Zm-1.59-5a21.82,21.82,0,0,1,.14-2.42c.16-1.13-.13-2.3.18-3.43-.08-1.52.1-3,.16-4.56a2.42,2.42,0,0,0-.54-1.61c-.44-.59-.86-1.2-1.27-1.79a18.39,18.39,0,0,0-2-2c-.37,0-.52-.38-.79-.55-.79-.48-1.54-1-2.33-1.49a22.74,22.74,0,0,0-4.28-2c-.58-.21-1.18-.37-1.76-.55A15.67,15.67,0,0,0,28,46.75c-.16,0-.23-.17-.36-.14-.26.58-.51,1.14-.78,1.69-.46,1-.88,2-1.32,3-.61,1.34-1.2,2.69-1.81,4a2.21,2.21,0,0,0-.28,1,2.16,2.16,0,0,1,.51,0c1.38.5,2.77,1,4.14,1.55,1.11.44,2.21.92,3.29,1.47s2.25,1,3.29,1.64a22.69,22.69,0,0,1,3.49,2.35,5.14,5.14,0,0,1,1.58,1.15,14.5,14.5,0,0,1,1.54,1.33C41.84,66.41,42.47,67,43.16,67.68Z" transform="translate(-2.34 -2.11)"/><path class="cls-1" d="M32.66,76.05v.06a.14.14,0,0,1,0,.06l0,0h-.06c-.16,0-.32,0-.48,0H17c-.2,0-.48.19-.61-.15Z" transform="translate(-2.34 -2.11)"/><path class="cls-1" d="M74,76.05a.13.13,0,0,1,0,.06l0,.06-.05,0h0c-.16,0-.32,0-.48,0H58.56c-.19,0-.47.19-.6-.15Z" transform="translate(-2.34 -2.11)"/><path class="cls-1" d="M58.28,25.38v7.25c.18.16.4.07.59.07,2,0,4,0,6,0,.14,0,.38-.16.44.15H58.2c-.16-.15-.08-.35-.08-.52V25.82C58.13,25.68,58,25.43,58.28,25.38Z" transform="translate(-2.34 -2.11)"/><path class="cls-1" d="M25.18,32.71l.05-.14c.24.21.53.14.8.14H32c.12,0,.33-.12.36.15H25.62C25.47,32.87,25.23,33,25.18,32.71Z" transform="translate(-2.34 -2.11)"/><path class="cls-1" d="M74,31.27V16.77h.06l.06,0,0,.05a.13.13,0,0,1,0,.06c0,.16,0,.32,0,.48q0,6.65,0,13.29C74.18,30.86,74.37,31.15,74,31.27Z" transform="translate(-2.34 -2.11)"/><path class="cls-1" d="M16.42,16.77V31.11h-.05l-.06,0s0,0,0,0a.07.07,0,0,1,0-.06c0-.16,0-.32,0-.48q0-6.57,0-13.13C16.28,17.18,16.08,16.9,16.42,16.77Z" transform="translate(-2.34 -2.11)"/><path class="cls-1" d="M63.69,21.08h5.84c.1.22,0,.43,0,.63-.31,0-.08-.3-.24-.47H64C63.86,21.24,63.69,21.29,63.69,21.08Z" transform="translate(-2.34 -2.11)"/></svg>