<svg width="166" height="167" viewBox="0 0 166 167" fill="none" xmlns="http://www.w3.org/2000/svg">
<path d="M62.8364 70.6027C62.2316 70.1725 61.7447 69.6116 61.245 69.073C60.6371 68.4164 59.8732 67.94 59.3162 67.3201L54.8603 71.782L59.1762 76.1004C59.179 76.1386 59.179 76.1769 59.1762 76.2151C59.1753 76.2399 59.167 76.2638 59.1523 76.2837L52.346 83.1023C52.3316 83.1167 52.338 83.1517 52.346 83.1023L55.3791 86.1396C55.0036 87.0001 54.7203 87.7331 54.3479 88.396L49.1887 83.2298C50.5938 81.8227 52.0181 80.3615 53.4854 78.948C53.9739 78.47 54.3193 77.882 54.8253 77.4262C55.1707 77.1171 55.4619 76.7426 55.882 76.5179C56.0014 76.4558 56.1494 76.3458 56.1573 76.2295C55.1229 75.1921 54.1188 74.1882 53.1623 73.2305L43.022 83.3844L52.381 92.7559C52.0627 93.3806 51.8845 94.12 51.3657 94.6092L40 83.2426L51.8558 71.3692V52.2995H70.5816L82.8608 40.0071C83.0645 39.9848 83.1408 40.1919 83.2634 40.3131C86.1549 43.2021 89.0592 46.0784 91.9221 48.9946C93.0361 50.1228 94.2933 51.0789 95.3643 52.282H113.896V71.1366C116.38 73.6241 118.796 76.1291 121.31 78.5289C122.777 79.9291 124.231 81.3436 125.671 82.7725C125.798 82.8984 125.968 82.9924 126 83.1167L112.965 96.1629L112.193 93.8985L122.832 83.2521C122.833 83.2229 122.833 83.1937 122.832 83.1645C122.832 83.1406 122.832 83.1087 122.811 83.0944C119.456 79.732 116.105 76.375 112.757 73.0233L109.693 76.0924L116.657 83.0641C116.339 83.6186 113.191 86.8376 111.211 88.6414L110.54 86.3308L112.075 84.7931L113.592 83.2744L106.51 76.1833L110.896 71.7931L106.44 67.3312C105.535 68.238 104.558 69.2228 103.576 70.1996C103.375 70.3988 103.219 70.6521 102.939 70.7637C102.884 70.453 102.642 70.6123 102.495 70.6123C100.508 70.6012 98.5168 70.6123 96.5339 70.5996C96.335 70.5996 96.117 70.6792 95.9372 70.5279V63.2725C96.2745 62.7626 96.7567 62.3897 97.1768 61.9579C97.8596 61.2535 98.5598 60.5667 99.2791 59.8465C99.0069 59.574 98.7412 59.2935 98.4595 59.029C97.3296 57.9661 96.4114 56.7024 95.2608 55.6555C95.1343 55.5087 95.0244 55.3484 94.933 55.1774C94.3553 55.6714 93.8588 56.0395 93.4291 56.4762C92.6732 57.2395 91.8139 57.8864 91.0516 58.6449C90.7333 58.9636 90.3498 59.2473 89.9647 59.6011C89.4173 58.9636 88.6916 58.5191 88.1028 57.9087C86.5703 56.3312 84.9996 54.7886 83.4464 53.2286C83.2873 53.0692 83.1392 52.8716 83.0358 52.7505C82.7064 52.7505 82.6268 52.9433 82.5027 53.0692C81.9155 53.6445 81.376 54.2739 80.7522 54.803C78.981 56.2977 77.4596 58.0522 75.7791 59.6154C75.5356 59.5963 75.4608 59.3955 75.3271 59.284C74.2004 58.3756 73.244 57.2841 72.173 56.3184C71.7529 55.9391 71.32 55.5679 70.8999 55.1774C70.3461 55.4882 70.1042 56.0937 69.6745 56.5224C69.2446 56.9356 68.8407 57.3752 68.4651 57.8386C67.8954 58.5637 67.1761 59.1692 66.5411 59.805L70.1567 63.4319V70.5629C70.1567 70.6713 70.1567 70.7812 69.9976 70.7685C69.969 70.5024 69.7621 70.6091 69.6348 70.6091C67.6519 70.6091 65.6706 70.6091 63.6878 70.6091C63.4188 70.6091 63.1292 70.6888 62.8921 70.4769L62.8364 70.6027ZM54.0838 69.0092L54.1522 69.1765C55.559 67.7934 56.8878 66.348 58.4187 65.121V58.97H64.337C65.7279 57.6378 66.9835 56.1877 68.306 54.6675H54.0838C53.7432 54.7934 53.9358 55.0786 53.9358 55.2715C53.922 59.6483 53.9182 64.0263 53.9246 68.4053C53.9246 68.5646 53.9246 68.724 53.9246 68.8833C53.9232 68.9033 53.9266 68.9233 53.9347 68.9417C53.9427 68.96 53.9552 68.9761 53.9709 68.9885C53.9866 69.0009 54.0051 69.0093 54.0247 69.0129C54.0444 69.0165 54.0647 69.0153 54.0838 69.0092ZM101.348 58.97C101.348 59.1867 101.507 59.1294 101.63 59.1294C102.312 59.1294 102.997 59.1294 103.679 59.1294H107.002C107.161 59.3015 106.934 59.5708 107.236 59.6074V64.9473L108.641 66.3528C109.623 67.3296 110.567 68.3463 111.692 69.1686C112.032 69.0427 111.84 68.7574 111.84 68.5646C111.855 64.1336 111.858 59.7025 111.851 55.2715C111.851 55.1121 111.851 54.9528 111.851 54.7934C111.852 54.7734 111.849 54.7534 111.841 54.7351C111.833 54.7167 111.82 54.7006 111.805 54.6882C111.789 54.6758 111.771 54.6674 111.751 54.6638C111.731 54.6602 111.711 54.6615 111.692 54.6675H97.6479C97.6236 54.6703 97.6005 54.6797 97.5811 54.6946C97.562 54.7089 97.5492 54.7313 97.5731 54.7026C98.2288 55.638 99.0292 56.4268 99.8345 57.2108C100.404 57.7373 100.912 58.3276 101.348 58.97ZM82.8878 49.4854L89.8899 56.4969C90.9418 55.4436 91.9858 54.3966 92.9915 53.3911L82.9133 43.2993C82.2879 43.6515 81.7691 44.2411 81.2137 44.7924C80.6312 45.3725 80.0504 45.9568 79.4711 46.5453L77.7842 48.2345L76.0337 49.9873C75.472 50.5498 74.9038 51.1028 74.3484 51.6781C73.793 52.2533 73.166 52.7935 72.6457 53.4405C73.2026 53.9982 73.731 54.5161 74.2466 55.0468C74.7622 55.5774 75.3033 56.022 75.7425 56.653L82.8878 49.4854ZM67.9288 68.52V64.4677L64.6935 61.2296H60.6243V65.4589C61.8561 66.3464 62.787 67.5304 63.8787 68.52H67.9288ZM98.0314 64.2844V68.5168H102.078L104.986 65.6055V61.2185H101.093L98.0314 64.2844Z" fill="#EBEBEB"/>
<path d="M111.692 113.946V102.863C112.384 102.595 113.124 102.519 113.88 102.302V116.151H93.9877C90.1493 119.632 86.6673 123.405 82.9514 127.002L82.2035 126.253C80.1347 124.181 78.0961 122.109 76.0114 120.065C74.6953 118.776 73.2886 117.584 72.0409 116.204H51.9465C51.8112 115.487 51.7651 104.648 51.8813 101.504C52.6037 101.687 53.2992 101.943 54.0837 102.028V113.946C54.2095 114.287 54.4943 114.094 54.6869 114.094C59.6944 114.109 64.703 114.113 69.7127 114.105C69.8719 114.105 70.031 114.105 70.1901 114.105C70.2101 114.107 70.2301 114.103 70.2484 114.095C70.2667 114.087 70.2828 114.075 70.2952 114.059C70.3076 114.043 70.3159 114.025 70.3195 114.005C70.3232 113.985 70.3219 113.965 70.3159 113.946V113.707C70.0453 113.648 69.8878 113.436 69.7079 113.256C68.4486 111.999 67.1925 110.742 65.9396 109.484H58.4203V102.951L60.6084 103.626V107.226H66.8562C68.707 108.99 70.3572 110.891 72.3178 112.477C72.7212 112.259 73.1032 112.003 73.4588 111.713C74.2179 111.956 74.681 112.66 75.4879 112.929C74.8943 113.598 74.1065 113.928 73.4954 114.494C76.5907 117.656 79.9055 120.578 82.8846 123.775L92.1146 114.532C91.8107 113.995 91.0309 113.895 90.6299 113.283C91.4033 112.944 91.7025 112.022 92.6 111.849L93.5214 112.51C93.5468 112.513 93.5724 112.513 93.5978 112.51C93.6225 112.506 93.6456 112.496 93.6646 112.48L98.886 107.253H104.973V104.474L107.201 103.73V109.466H99.9427L95.5138 113.903L95.6189 113.946C95.7446 114.287 96.0294 114.094 96.222 114.094C101.178 114.109 106.133 114.113 111.089 114.105C111.248 114.105 111.407 114.105 111.566 114.105C111.586 114.107 111.606 114.103 111.624 114.095C111.643 114.087 111.659 114.075 111.671 114.059C111.684 114.043 111.692 114.025 111.696 114.005C111.699 113.985 111.698 113.965 111.692 113.946Z" fill="#EBEBEB"/>
<path d="M88.6169 88.9275C88.114 88.9275 87.6095 88.9275 87.1066 88.9275C85.4564 88.9084 83.9016 88.4925 82.3723 87.8774C81.2944 87.4472 80.268 86.8978 79.312 86.2393C78.8712 85.9365 78.4622 85.6019 78.0389 85.2832C77.3721 84.8051 76.8422 84.1964 76.2629 83.6339C75.284 82.681 74.4845 81.5593 73.9029 80.3225C73.4526 79.3664 73.155 78.3497 72.8367 77.3378C72.2717 75.5356 72.3593 73.7046 72.4134 71.8768C72.4311 71.2446 72.5284 70.6171 72.703 70.0092C72.8733 69.418 73.0213 68.8157 73.2393 68.242C73.6817 67.0899 74.1798 65.9649 74.9071 64.9498C75.2174 64.5164 75.4768 64.0447 75.8778 63.6861C76.1515 63.4407 76.2741 63.0949 76.5398 62.8384C77.5089 61.9331 78.5582 61.1181 79.6749 60.4035C81.0801 59.4729 82.6651 58.9311 84.2278 58.343C84.6225 58.4227 84.9519 58.0817 85.3497 58.1694C85.5932 58.2235 85.7794 57.8236 86.0579 58.0769C85.5974 58.3311 85.1778 58.6534 84.8134 59.033C84.4729 59.4266 83.978 59.6386 83.6406 60.0449C82.9961 60.8178 82.245 61.5158 81.6975 62.3508C81.0116 63.3945 80.3989 64.5036 80.0329 65.7147C79.9183 66.0908 79.6892 66.4397 79.7067 66.8525C79.7226 67.2397 79.4362 67.5823 79.5476 67.9807C79.2054 69.0324 79.3773 70.1192 79.4155 71.1789C79.4521 72.1653 79.7703 73.1293 80.0679 74.0823C80.4165 75.2057 80.9957 76.2064 81.6275 77.1753C82.081 77.8717 82.6778 78.4613 83.2762 79.0445C83.9944 79.7247 84.7859 80.3228 85.6362 80.8277C86.4124 81.306 87.2446 81.6865 88.114 81.9607C88.6789 82.1407 89.263 82.2618 89.8422 82.3941C91.2936 82.7255 92.7672 82.5184 94.2297 82.5391C94.9744 82.5503 95.7001 82.2889 96.3892 82.0117C97.8214 81.4364 99.1868 80.7639 100.407 79.7903C100.823 79.4572 101.174 79.0541 101.657 78.7067C101.698 79.0174 101.418 79.2086 101.498 79.4636C101.081 80.0229 100.843 80.6842 100.512 81.2898C100.035 82.163 99.408 82.9391 98.9672 83.8299C98.5375 83.9398 98.1413 84.1486 97.7307 84.2856C96.4178 84.7079 95.202 85.3357 93.9512 85.8951C93.0759 86.2855 92.2277 86.7221 91.3954 87.1922C90.439 87.7276 89.5096 88.2997 88.6169 88.9275Z" fill="#FFB400"/>
<path d="M60.8996 80.7783L61.899 81.3105C61.5903 82.3128 61.1479 83.2227 60.785 84.1486C60.3697 85.1987 59.8748 86.2201 59.4562 87.2623C59.2127 87.871 58.9215 88.475 58.6351 89.0726C58.3338 89.6626 58.0644 90.2685 57.8282 90.8876C57.615 91.4931 57.1439 91.9935 57.1137 92.6644C56.6984 93.2285 56.4978 93.8977 56.2305 94.5304C55.9122 95.2745 55.5096 95.9884 55.3234 96.8426C56.9418 97.1007 58.4409 97.6728 59.9527 98.1859C60.715 98.4441 61.463 98.7644 62.2141 99.0623C64.607 100.019 66.9447 101.109 69.2162 102.327C70.1965 102.852 71.1561 103.425 72.1157 103.991C73.5129 104.813 74.8497 105.72 76.1944 106.62C76.8835 107.083 77.5503 107.577 78.2202 108.072C79.6628 109.134 81.0085 110.321 82.2417 111.621C82.509 111.903 82.9164 112.011 83.1058 112.336C83.6898 111.946 84.1529 111.426 84.737 111.044C85.0696 110.802 85.384 110.536 85.6775 110.247C86.3681 109.637 87.1415 109.143 87.8656 108.584C88.6358 107.989 89.4681 107.468 90.2861 106.942C91.2871 106.292 92.2944 105.65 93.3097 105.03C94.3012 104.425 95.3133 103.84 96.3334 103.311C97.5715 102.673 98.7841 101.963 100.116 101.497C100.641 101.314 101.136 101.019 101.65 100.787C102.454 100.423 103.277 100.104 104.115 99.8304C104.928 99.5627 105.75 99.2599 106.612 99.1213C107.554 98.962 108.466 98.6305 109.438 98.6432C109.814 98.3931 110.299 98.6241 110.63 98.4536C111.031 98.2481 111.401 98.4106 111.762 98.3102C112.153 99.0018 112.184 99.789 112.464 100.524C111.588 100.702 110.704 100.866 109.827 101.057C108.888 101.26 107.947 101.473 107.023 101.762C106.13 102.041 105.241 102.33 104.354 102.627C103.68 102.856 103.019 103.122 102.374 103.424C101.462 103.848 100.552 104.288 99.6291 104.673C98.6663 105.076 97.8038 105.644 96.8729 106.087C96.3221 106.37 95.7905 106.69 95.2815 107.043C93.9638 107.903 92.6525 108.773 91.3476 109.651C90.6601 110.117 89.9917 110.607 89.3201 111.097C88.6215 111.603 87.9293 112.118 87.2513 112.657C86.6816 113.109 86.1533 113.622 85.5008 113.984C85.1268 114.191 84.8468 114.558 84.511 114.838C84.0558 115.219 83.518 115.512 83.136 116.033L82.3626 115.259C81.736 114.647 81.0676 114.079 80.3622 113.56C79.9962 113.28 79.6732 112.945 79.3071 112.655C78.4112 111.944 77.4802 111.278 76.6018 110.558C75.596 109.739 74.4646 109.111 73.4652 108.29C73.0699 107.988 72.6487 107.722 72.2064 107.494C71.1879 106.93 70.2331 106.265 69.2066 105.714C68.1802 105.162 67.1601 104.63 66.1273 104.111C65.1438 103.615 64.0967 103.249 63.1037 102.783C61.8306 102.194 60.5352 101.682 59.2302 101.18C58.4266 100.871 57.6198 100.568 56.797 100.339C55.917 100.092 55.0624 99.7619 54.1601 99.5787C53.6236 99.49 53.097 99.3491 52.5878 99.158C52.2791 99.0273 51.8717 99.1866 51.5757 98.9141C51.8494 98.103 52.3252 97.3812 52.6435 96.594C52.9952 95.7255 53.4662 94.9176 53.8195 94.0539C54.2572 92.9815 54.8826 91.9951 55.3218 90.9322C56.0379 89.2 57.0023 87.5938 57.7407 85.8807C58.3263 84.523 59.0456 83.2355 59.6615 81.8969C59.8938 81.3726 60.236 80.9599 60.8996 80.7783Z" fill="#EBEBEB"/>
<path d="M88.6167 88.9275C89.5095 88.2997 90.4389 87.7276 91.3889 87.1906C92.2212 86.7125 93.0694 86.2839 93.9447 85.8935C95.1955 85.3341 96.4113 84.7063 97.7242 84.284C98.1348 84.1517 98.5311 83.9382 98.9607 83.8283C99.4923 83.6402 100.027 83.4618 100.552 83.2642C101.31 82.9805 102.062 82.6841 102.817 82.3941C103.505 82.125 104.21 81.903 104.928 81.7296C105.503 81.5925 106.066 81.3997 106.647 81.2786C106.934 81.2181 107.199 80.9982 107.516 81.1639C107.664 81.5256 107.432 81.9192 107.675 82.2985C107.855 82.5869 107.637 82.9917 107.858 83.3391C107.966 83.508 107.892 83.8044 107.872 84.0418C107.853 84.2792 108.102 84.4242 108.051 84.6951C107.99 84.9996 108.036 85.3158 108.18 85.5907C108.313 85.8473 108.056 86.2201 108.355 86.4719C108.248 86.95 108.584 87.3643 108.514 87.8392C108.518 88.0129 108.552 88.1847 108.612 88.3475C108.756 89.0072 108.837 89.6829 108.977 90.349C109.034 90.6167 108.977 90.8892 109.128 91.1648C109.279 91.4405 109.061 91.7529 109.287 92.0604C109.426 92.2548 109.354 92.5847 109.432 92.8572C109.537 93.2198 109.594 93.595 109.599 93.9726C109.599 94.422 109.878 94.8124 109.785 95.2586C110.123 95.6665 109.75 96.237 110.142 96.6195C109.838 96.7788 109.578 96.9653 109.255 96.8808C108.932 96.7964 108.667 97.0131 108.367 97.0497C108.068 97.0864 107.785 97.0067 107.462 97.1708C107.139 97.335 106.727 97.2521 106.348 97.3382C105.888 97.4417 105.428 97.5469 104.975 97.6776C104.241 97.8911 103.504 98.0951 102.771 98.315C102.254 98.4709 101.745 98.6539 101.248 98.8632C99.8456 99.44 98.4133 99.9691 97.0877 100.72C96.0135 101.327 94.9186 101.896 93.8588 102.531C92.4695 103.366 91.112 104.243 89.7896 105.177C89.126 105.644 88.4815 106.133 87.8481 106.644C86.427 107.792 85.2701 109.194 83.8696 110.459C83.8871 110.09 83.701 109.745 83.9763 109.415C84.0176 109.368 83.9985 109.267 84.0001 109.189C84.0001 109.084 84.0001 108.977 84.0001 108.87C84.0001 107.914 84.0001 106.958 84.0001 106.002C83.9907 105.067 84.0354 104.131 84.1338 103.201C84.2452 102.259 84.0447 101.276 84.1863 100.342C84.3693 99.1372 84.172 97.9278 84.3455 96.747C84.4728 95.8849 84.4234 95.0355 84.4776 94.1814C84.4998 93.8292 84.7322 93.5073 84.6224 93.1615C85.6234 91.4118 87.1002 90.1498 88.6167 88.9275ZM85.6711 105.181C86.354 104.489 87.0887 103.85 87.8688 103.269C88.5801 102.739 89.2724 102.176 89.9981 101.665C91.4497 100.663 92.9541 99.7397 94.5049 98.8998C95.8989 98.1222 97.3614 97.48 98.8127 96.8203C99.2032 96.6162 99.6054 96.4358 100.017 96.2801C101.004 95.9693 101.927 95.5088 102.925 95.2251C103.99 94.9208 105.011 94.465 106.299 94.269C105.875 94.0173 106.03 93.6842 105.953 93.4006C105.843 92.999 105.891 92.5687 105.769 92.2022C105.693 91.9619 105.655 91.7115 105.654 91.4597C105.641 91.1776 105.374 90.9529 105.495 90.6485C105.597 90.3745 105.288 90.1705 105.336 89.9203C105.444 89.3897 105.177 88.9116 105.145 88.3937C105.145 88.0162 105.091 87.6406 104.986 87.2782C104.895 87.0417 104.857 86.7884 104.873 86.5357C104.892 86.2632 104.612 86.0927 104.696 85.8026C104.79 85.4839 104.613 85.2146 104.457 84.9294C104.122 85.0091 103.778 85.0744 103.445 85.1732C102.669 85.4074 101.892 85.6433 101.125 85.9062C100.081 86.2632 99.0324 86.6137 98.0107 87.0217C96.7837 87.5173 95.5838 88.0782 94.3712 88.6072C93.5755 88.9514 92.8673 89.4534 92.0891 89.8215C91.6192 90.037 91.1696 90.2946 90.746 90.5912C89.5397 91.4644 88.2412 92.2229 87.3134 93.4675C86.8455 94.0953 86.3968 94.7423 85.905 95.4084C85.9973 95.7892 85.8095 96.1781 85.7825 96.5765C85.7252 97.4226 85.7825 98.2751 85.7602 99.1261C85.7379 99.977 85.5565 100.771 85.6011 101.609C85.6472 102.643 85.609 103.68 85.6154 104.715C85.5931 104.863 85.5374 105.022 85.6711 105.181Z" fill="#EBEBEB"/>
<path d="M82.4103 110.614C82.1812 110.337 82.0714 110.193 81.9504 110.061C80.9956 109.008 79.8705 108.133 78.8456 107.153C78.1916 106.53 77.4134 106.002 76.7196 105.419C75.4162 104.327 74.0142 103.39 72.5995 102.466C71.877 101.988 71.1195 101.572 70.3715 101.147C69.0613 100.403 67.7277 99.7125 66.3708 99.0751C65.5289 98.6783 64.6616 98.3373 63.7975 97.9883C62.5626 97.4911 61.2943 97.1151 60.0355 96.696C59.4937 96.5192 58.9408 96.3786 58.3804 96.2753C58.0844 96.2195 57.8314 95.939 57.3556 96.2418C57.7996 95.1758 58.199 94.2961 58.5316 93.3942C58.9661 92.2166 59.6026 91.1298 60.0052 89.941C60.1055 89.6414 60.3108 89.3785 60.4476 89.0885C60.9251 88.0686 61.4248 87.052 61.8799 86.0162C62.273 85.1142 62.7249 84.2426 63.153 83.3598C63.3567 82.9407 63.5429 82.512 63.7052 82.0754C63.8112 81.8433 63.9659 81.6367 64.1588 81.4699C65.0245 81.2691 65.8202 81.6292 66.619 81.822C67.7907 82.1076 68.9443 82.4625 70.0739 82.8849C71.3152 83.347 72.5533 83.8171 73.688 84.5438C74.35 84.966 75.0454 85.3549 75.7409 85.7293C76.3185 86.048 76.823 86.456 77.3466 86.8321C78.5283 87.6886 79.6184 88.6653 80.5994 89.7466C81.3871 90.6119 82.0459 91.5808 82.7159 92.5353C82.7958 92.6258 82.8507 92.7357 82.875 92.854C82.8909 93.4994 83.1742 94.1288 83.0342 94.779C82.7159 96.2896 83.0342 97.8258 82.8575 99.3317C82.6809 100.838 82.8798 102.385 82.6888 103.884C82.5074 105.304 82.6125 106.713 82.579 108.125C82.5695 108.521 82.334 108.848 82.3913 109.255C82.4485 109.661 82.4103 110.039 82.4103 110.614ZM80.819 105.575C80.8197 104.767 80.8664 103.96 80.959 103.158C81.1181 102.023 80.8317 100.855 81.142 99.7221C81.0593 98.1987 81.2439 96.6848 81.3012 95.1662C81.3187 94.5795 81.1263 94.0058 80.7585 93.5488C80.3209 92.9623 79.9023 92.3584 79.4854 91.7608C78.9204 90.9465 78.0929 90.4557 77.442 89.7625C77.0697 89.745 76.9153 89.3881 76.6464 89.216C75.8634 88.7379 75.1091 88.2009 74.3182 87.7228C72.964 86.9157 71.53 86.2513 70.0389 85.7405C69.4565 85.5365 68.8613 85.3756 68.2757 85.1907C67.4152 84.9347 66.5347 84.7518 65.6435 84.6441C65.4844 84.6234 65.408 84.4721 65.2807 84.5023C65.0149 85.0792 64.7651 85.6433 64.5025 86.1946C64.0394 87.1715 63.6225 88.1674 63.1753 89.1506C62.5674 90.4908 61.977 91.8389 61.3707 93.1807C61.1998 93.4895 61.1024 93.8335 61.0858 94.1862C61.2911 94.1862 61.4598 94.1431 61.5982 94.1862C62.9843 94.6802 64.3672 95.1837 65.7358 95.7287C66.8498 96.1749 67.9526 96.6561 69.0252 97.2027C70.0978 97.7493 71.2834 98.2003 72.3178 98.8472C73.4986 99.6041 74.7717 100.216 75.8061 101.198C76.4633 101.397 76.8882 101.94 77.3895 102.347C77.8908 102.753 78.4637 103.162 78.9252 103.669C79.5013 104.305 80.1331 104.893 80.819 105.575Z" fill="#EBEBEB"/>
<path d="M70.3159 113.946C70.3219 113.965 70.3232 113.985 70.3195 114.005C70.3159 114.025 70.3076 114.043 70.2952 114.059C70.2828 114.075 70.2667 114.087 70.2484 114.095C70.2301 114.103 70.2101 114.107 70.1901 114.105C70.031 114.115 69.8719 114.105 69.7127 114.105C64.7052 114.105 59.6966 114.101 54.6869 114.094C54.4943 114.094 54.2095 114.287 54.0837 113.946H70.3159Z" fill="#AA6601"/>
<path d="M111.692 113.946C111.698 113.965 111.699 113.985 111.696 114.005C111.692 114.025 111.684 114.043 111.671 114.059C111.659 114.075 111.643 114.087 111.624 114.095C111.606 114.103 111.586 114.107 111.566 114.105C111.407 114.115 111.248 114.105 111.089 114.105C106.133 114.105 101.178 114.101 96.222 114.094C96.0295 114.094 95.7446 114.287 95.6189 113.946H111.692Z" fill="#AA6701"/>
<path d="M95.9371 63.2718V70.5255C96.1169 70.6849 96.335 70.5972 96.5339 70.5972C98.5199 70.5972 100.512 70.5972 102.495 70.61C102.642 70.61 102.884 70.4506 102.939 70.7614H95.8575C95.6984 70.6116 95.7828 70.4156 95.7828 70.2435C95.7764 68.0689 95.7764 65.891 95.7828 63.71C95.7859 63.5698 95.6268 63.3276 95.9371 63.2718Z" fill="#B17009"/>
<path d="M62.8364 70.602L62.8921 70.4666C63.1292 70.6785 63.4189 70.5988 63.6878 70.5988C65.6707 70.5988 67.652 70.5988 69.6348 70.5988C69.7621 70.5988 69.969 70.4873 69.9977 70.7582C67.757 70.7582 65.5179 70.7582 63.2772 70.7502C63.1324 70.7614 62.8905 70.9112 62.8364 70.602Z" fill="#B1720C"/>
<path d="M111.692 69.1679V54.6668C111.711 54.6608 111.731 54.6595 111.751 54.6631C111.771 54.6667 111.789 54.6751 111.805 54.6875C111.82 54.6999 111.833 54.716 111.841 54.7343C111.849 54.7527 111.852 54.7727 111.851 54.7927C111.861 54.952 111.851 55.1114 111.851 55.2708C111.851 59.7018 111.847 64.1329 111.84 68.5639C111.84 68.7567 112.032 69.042 111.692 69.1679Z" fill="#B2710B"/>
<path d="M54.0837 54.6668V69.0085C54.0646 69.0145 54.0444 69.0158 54.0247 69.0122C54.005 69.0086 53.9865 69.0002 53.9708 68.9878C53.9551 68.9754 53.9427 68.9593 53.9346 68.9409C53.9266 68.9226 53.9231 68.9026 53.9246 68.8826C53.915 68.7232 53.9246 68.5639 53.9246 68.4045C53.9246 64.0277 53.9283 59.6497 53.9357 55.2707C53.9357 55.0779 53.7431 54.7927 54.0837 54.6668Z" fill="#B3730C"/>
<path d="M101.348 58.9693H107.185C107.289 59.1924 107.209 59.4043 107.236 59.6067C106.934 59.5701 107.156 59.3008 107.002 59.1287H103.679C102.997 59.1287 102.312 59.1287 101.63 59.1287C101.515 59.1287 101.348 59.186 101.348 58.9693Z" fill="#AD6902"/>
</svg>
